<svg width="390" height="155" viewBox="0 0 390 155" fill="none" xmlns="http://www.w3.org/2000/svg">
<g filter="url(#filter0_d)">
<path d="M87.8851 33.1025L79.0148 35.5478C76.8301 32.3347 74.1129 29.6312 71.034 27.5133L73.2871 18.373C73.3688 18.033 73.0431 17.6002 72.5411 17.3976L64.8072 14.276C64.3171 14.0782 63.7702 14.1588 63.5928 14.4602L58.8619 22.5932C55.1801 21.968 51.3468 22.0276 47.5308 22.8187L42.8564 14.9279C42.6851 14.6293 42.1611 14.6186 41.6614 14.8402L33.9132 18.2764C33.4136 18.4979 33.0654 18.8954 33.1435 19.2354L35.3593 28.257C32.1687 30.563 29.4647 33.4026 27.3255 36.5992L18.4364 34.4962C18.1057 34.4201 17.6753 34.7629 17.466 35.281L14.2423 43.262C14.038 43.7678 14.1047 44.3255 14.3955 44.5003L22.2448 49.1605C21.5519 52.9409 21.5255 56.8612 22.2148 60.7475L14.31 65.7417C14.0141 65.9235 13.9074 66.4973 14.1131 67.0036L17.3023 74.8543C17.5079 75.3606 17.9736 75.6705 18.3078 75.583L27.2204 73.1189C29.4051 76.332 32.1392 79.028 35.2266 81.1421L32.9904 90.2749C32.9087 90.615 33.2429 91.0439 33.7364 91.2503L41.4703 94.3719C41.9604 94.5697 42.5073 94.4892 42.6847 94.1878L47.4157 86.0547C51.0974 86.68 54.9307 86.6204 58.7467 85.8293L63.456 93.8058C63.6273 94.1045 64.1862 94.2009 64.6858 93.9794L72.434 90.5432C72.9336 90.3216 73.247 89.8384 73.1689 89.4984L70.9561 80.4349C74.1466 78.1289 76.8437 75.2722 78.9794 72.067L87.8616 74.1528C88.1923 74.2289 88.6192 73.8775 88.8319 73.368L92.0557 65.387C92.2599 64.8812 92.1933 64.3235 91.9024 64.1487L84.0532 59.4886C84.746 55.7081 84.7725 51.7879 84.0831 47.9015L91.9033 42.9449C92.1992 42.7631 92.2212 42.2268 92.0155 41.7206L88.8264 33.8698C88.6003 33.3625 88.2158 33.0065 87.8851 33.1025Z" fill="#F06E10" stroke="#F06E10" stroke-width="5" stroke-miterlimit="10" stroke-linecap="round" stroke-linejoin="round"/>
<path d="M61.9398 76.2103C73.8029 70.9493 79.4611 56.939 74.5776 44.9176C69.6941 32.8961 56.1184 27.4158 44.2553 32.6768C32.3921 37.9379 26.734 51.9482 31.6175 63.9696C36.501 75.991 50.0767 81.4714 61.9398 76.2103Z" fill="#F4F4F4" stroke="#F06E10" stroke-width="6" stroke-miterlimit="10"/>
</g>
<g filter="url(#filter1_d)">
<path d="M146.486 107.235L138.431 106.035C137.713 102.665 136.391 99.5159 134.58 96.709L139.452 90.1487C139.631 89.9039 139.509 89.4388 139.166 89.0961L133.886 83.8169C133.552 83.4823 133.078 83.3518 132.833 83.5313L126.272 88.3944C123.473 86.5748 120.323 85.2529 116.945 84.5267L115.745 76.4977C115.705 76.1958 115.28 76 114.799 76H107.332C106.85 76 106.434 76.1958 106.385 76.4977L105.202 84.5594C101.832 85.2774 98.6817 86.5993 95.8745 88.4107L89.3135 83.5394C89.0687 83.3599 88.6035 83.4823 88.2608 83.825L82.981 89.1043C82.6464 89.4388 82.5158 89.9121 82.6953 90.1568L87.559 96.7171C85.7392 99.5159 84.4172 102.665 83.6909 106.044L75.5794 107.243C75.2775 107.284 75 107.708 75 108.189V115.655C75 116.137 75.2775 116.553 75.5794 116.602L83.6746 117.801C84.3927 121.171 85.731 124.321 87.5508 127.128L82.6953 133.688C82.5158 133.933 82.6464 134.398 82.981 134.741L88.2608 140.02C88.5954 140.354 89.0687 140.485 89.3135 140.306L95.8745 135.442C98.6736 137.262 101.824 138.584 105.202 139.31L106.402 147.421C106.442 147.723 106.867 148 107.348 148H114.815C115.296 148 115.713 147.723 115.762 147.421L116.961 139.326C120.332 138.608 123.481 137.27 126.289 135.451L132.85 140.306C133.095 140.485 133.56 140.354 133.902 140.02L139.182 134.741C139.517 134.406 139.647 133.933 139.468 133.688L134.604 127.128C136.424 124.329 137.746 121.18 138.472 117.801L146.502 116.602C146.804 116.561 147 116.137 147 115.655V108.189C146.984 107.7 146.788 107.276 146.486 107.235Z" fill="#024284" stroke="#024284" stroke-width="3" stroke-miterlimit="10" stroke-linecap="round" stroke-linejoin="round"/>
<path d="M111 136C124.255 136 135 125.255 135 112C135 98.7452 124.255 88 111 88C97.7451 88 86.9999 98.7452 86.9999 112C86.9999 125.255 97.7451 136 111 136Z" fill="#F4F4F4" stroke="#024284" stroke-width="12" stroke-miterlimit="10"/>
</g>
<g filter="url(#filter2_d)">
<path d="M167.116 122.776C166.804 123.592 166.264 124 165.496 124H158.692C158.476 124 158.284 123.928 158.116 123.784C157.972 123.616 157.9 123.424 157.9 123.208L157.936 122.992L165.784 99.988C165.88 99.676 166.06 99.4 166.324 99.16C166.588 98.92 166.948 98.8 167.404 98.8H177.412C177.868 98.8 178.228 98.92 178.492 99.16C178.756 99.4 178.936 99.676 179.032 99.988L186.88 122.992L186.916 123.208C186.916 123.424 186.832 123.616 186.664 123.784C186.52 123.928 186.34 124 186.124 124H179.32C178.552 124 178.012 123.592 177.7 122.776L176.8 120.256H168.016L167.116 122.776ZM172.408 105.748L169.852 113.236H174.964L172.408 105.748ZM220.058 122.884C220.106 122.98 220.13 123.088 220.13 123.208C220.13 123.424 220.046 123.616 219.878 123.784C219.734 123.928 219.554 124 219.338 124H211.166C210.83 124 210.518 123.916 210.23 123.748C209.966 123.58 209.774 123.364 209.654 123.1L206.486 115.972H203.462V123.028C203.462 123.292 203.366 123.52 203.174 123.712C202.982 123.904 202.754 124 202.49 124H194.714C194.45 124 194.222 123.904 194.03 123.712C193.838 123.52 193.742 123.292 193.742 123.028V99.772C193.742 99.508 193.838 99.28 194.03 99.088C194.222 98.896 194.45 98.8 194.714 98.8H208.718C210.878 98.8 212.762 99.148 214.37 99.844C216.002 100.54 217.25 101.548 218.114 102.868C218.978 104.188 219.41 105.736 219.41 107.512C219.41 110.776 218.15 113.14 215.63 114.604L220.058 122.884ZM207.962 109.312C208.49 109.312 208.898 109.144 209.186 108.808C209.474 108.448 209.618 108.004 209.618 107.476C209.618 106.948 209.474 106.492 209.186 106.108C208.922 105.7 208.514 105.496 207.962 105.496H203.462V109.312H207.962ZM244.128 116.62H250.644C250.908 116.62 251.136 116.716 251.328 116.908C251.52 117.1 251.616 117.328 251.616 117.592V123.028C251.616 123.292 251.52 123.52 251.328 123.712C251.136 123.904 250.908 124 250.644 124H227.82C227.556 124 227.328 123.904 227.136 123.712C226.944 123.52 226.848 123.292 226.848 123.028V117.592C226.848 117.328 226.944 117.1 227.136 116.908C227.328 116.716 227.556 116.62 227.82 116.62H234.408V106.18H227.82C227.556 106.18 227.328 106.084 227.136 105.892C226.944 105.7 226.848 105.472 226.848 105.208V99.772C226.848 99.508 226.944 99.28 227.136 99.088C227.328 98.896 227.556 98.8 227.82 98.8H250.644C250.908 98.8 251.136 98.896 251.328 99.088C251.52 99.28 251.616 99.508 251.616 99.772V105.208C251.616 105.472 251.52 105.7 251.328 105.892C251.136 106.084 250.908 106.18 250.644 106.18H244.128V116.62ZM286.09 113.596C286.09 117.268 284.866 119.98 282.418 121.732C279.994 123.484 276.754 124.36 272.698 124.36C268.642 124.36 265.39 123.484 262.942 121.732C260.518 119.98 259.306 117.244 259.306 113.524V109.276C259.306 106.828 259.882 104.8 261.034 103.192C262.21 101.56 263.806 100.36 265.822 99.592C267.838 98.824 270.13 98.44 272.698 98.44C275.266 98.44 277.546 98.824 279.538 99.592C281.554 100.36 283.15 101.548 284.326 103.156C285.502 104.764 286.09 106.78 286.09 109.204V113.596ZM269.026 114.28C269.026 115.264 269.35 116.02 269.998 116.548C270.67 117.076 271.57 117.34 272.698 117.34C273.826 117.34 274.714 117.076 275.362 116.548C276.034 115.996 276.37 115.228 276.37 114.244V108.556C276.37 107.572 276.034 106.816 275.362 106.288C274.714 105.736 273.826 105.46 272.698 105.46C271.57 105.46 270.67 105.724 269.998 106.252C269.35 106.78 269.026 107.536 269.026 108.52V114.28Z" fill="#F06E10"/>
</g>
<path d="M119.584 89.928C120.224 88.776 121.141 88.2 122.336 88.2H134.048C134.517 88.2 134.923 88.3707 135.264 88.712C135.605 89.0533 135.776 89.4587 135.776 89.928V131.272C135.776 131.741 135.605 132.147 135.264 132.488C134.923 132.829 134.517 133 134.048 133H122.464C121.995 133 121.589 132.829 121.248 132.488C120.907 132.147 120.736 131.741 120.736 131.272V111.432L116.064 120.648C115.936 120.947 115.637 121.288 115.168 121.672C114.699 122.056 114.101 122.248 113.376 122.248H109.024C108.299 122.248 107.701 122.056 107.232 121.672C106.763 121.288 106.464 120.947 106.336 120.648L101.664 111.432V131.272C101.664 131.741 101.493 132.147 101.152 132.488C100.811 132.829 100.405 133 99.936 133H88.352C87.8827 133 87.4773 132.829 87.136 132.488C86.7947 132.147 86.624 131.741 86.624 131.272V89.928C86.624 89.4587 86.7947 89.0533 87.136 88.712C87.4773 88.3707 87.8827 88.2 88.352 88.2H100.064C101.259 88.2 102.176 88.776 102.816 89.928L111.2 105.288L119.584 89.928Z" fill="#F06E10"/>
<path d="M43.984 72.824C43.4293 74.2747 42.4693 75 41.104 75H29.008C28.624 75 28.2827 74.872 27.984 74.616C27.728 74.3173 27.6 73.976 27.6 73.592L27.664 73.208L41.616 32.312C41.7867 31.7573 42.1067 31.2667 42.576 30.84C43.0453 30.4133 43.6853 30.2 44.496 30.2H62.288C63.0987 30.2 63.7387 30.4133 64.208 30.84C64.6773 31.2667 64.9973 31.7573 65.168 32.312L79.12 73.208L79.184 73.592C79.184 73.976 79.0347 74.3173 78.736 74.616C78.48 74.872 78.16 75 77.776 75H65.68C64.3147 75 63.3547 74.2747 62.8 72.824L61.2 68.344H45.584L43.984 72.824ZM53.392 42.552L48.848 55.864H57.936L53.392 42.552Z" fill="#024284"/>
<g filter="url(#filter3_d)">
<path d="M123.3 66.36C119.268 66.36 116.064 65.484 113.688 63.732C111.336 61.98 110.16 59.244 110.16 55.524V41.772C110.16 41.508 110.256 41.28 110.448 41.088C110.64 40.896 110.868 40.8 111.132 40.8H118.656C118.92 40.8 119.148 40.896 119.34 41.088C119.532 41.28 119.628 41.508 119.628 41.772V56.1C119.628 57.084 119.952 57.84 120.6 58.368C121.272 58.896 122.172 59.16 123.3 59.16C124.428 59.16 125.316 58.896 125.964 58.368C126.636 57.84 126.972 57.084 126.972 56.1V41.772C126.972 41.508 127.068 41.28 127.26 41.088C127.452 40.896 127.68 40.8 127.944 40.8H135.468C135.732 40.8 135.96 40.896 136.152 41.088C136.344 41.28 136.44 41.508 136.44 41.772V55.524C136.44 59.244 135.252 61.98 132.876 63.732C130.524 65.484 127.332 66.36 123.3 66.36ZM167.026 40.8C167.29 40.8 167.518 40.896 167.71 41.088C167.902 41.28 167.998 41.508 167.998 41.772V47.568C167.998 47.832 167.902 48.06 167.71 48.252C167.518 48.444 167.29 48.54 167.026 48.54H159.286V65.028C159.286 65.292 159.19 65.52 158.998 65.712C158.806 65.904 158.578 66 158.314 66H150.898C150.634 66 150.406 65.904 150.214 65.712C150.022 65.52 149.926 65.292 149.926 65.028V48.54H142.186C141.922 48.54 141.694 48.444 141.502 48.252C141.31 48.06 141.214 47.832 141.214 47.568V41.772C141.214 41.508 141.31 41.28 141.502 41.088C141.694 40.896 141.922 40.8 142.186 40.8H167.026ZM199.304 55.596C199.304 59.268 198.08 61.98 195.632 63.732C193.208 65.484 189.968 66.36 185.912 66.36C181.856 66.36 178.604 65.484 176.156 63.732C173.732 61.98 172.52 59.244 172.52 55.524V51.276C172.52 48.828 173.096 46.8 174.248 45.192C175.424 43.56 177.02 42.36 179.036 41.592C181.052 40.824 183.344 40.44 185.912 40.44C188.48 40.44 190.76 40.824 192.752 41.592C194.768 42.36 196.364 43.548 197.54 45.156C198.716 46.764 199.304 48.78 199.304 51.204V55.596ZM182.24 56.28C182.24 57.264 182.564 58.02 183.212 58.548C183.884 59.076 184.784 59.34 185.912 59.34C187.04 59.34 187.928 59.076 188.576 58.548C189.248 57.996 189.584 57.228 189.584 56.244V50.556C189.584 49.572 189.248 48.816 188.576 48.288C187.928 47.736 187.04 47.46 185.912 47.46C184.784 47.46 183.884 47.724 183.212 48.252C182.564 48.78 182.24 49.536 182.24 50.52V56.28ZM221.934 41.772C222.294 41.124 222.81 40.8 223.482 40.8H230.07C230.334 40.8 230.562 40.896 230.754 41.088C230.946 41.28 231.042 41.508 231.042 41.772V65.028C231.042 65.292 230.946 65.52 230.754 65.712C230.562 65.904 230.334 66 230.07 66H223.554C223.29 66 223.062 65.904 222.87 65.712C222.678 65.52 222.582 65.292 222.582 65.028V53.868L219.954 59.052C219.882 59.22 219.714 59.412 219.45 59.628C219.186 59.844 218.85 59.952 218.442 59.952H215.994C215.586 59.952 215.25 59.844 214.986 59.628C214.722 59.412 214.554 59.22 214.482 59.052L211.854 53.868V65.028C211.854 65.292 211.758 65.52 211.566 65.712C211.374 65.904 211.146 66 210.882 66H204.366C204.102 66 203.874 65.904 203.682 65.712C203.49 65.52 203.394 65.292 203.394 65.028V41.772C203.394 41.508 203.49 41.28 203.682 41.088C203.874 40.896 204.102 40.8 204.366 40.8H210.954C211.626 40.8 212.142 41.124 212.502 41.772L217.218 50.412L221.934 41.772ZM243.34 64.776C243.028 65.592 242.488 66 241.72 66H234.916C234.7 66 234.508 65.928 234.34 65.784C234.196 65.616 234.124 65.424 234.124 65.208L234.16 64.992L242.008 41.988C242.104 41.676 242.284 41.4 242.548 41.16C242.812 40.92 243.172 40.8 243.628 40.8H253.636C254.092 40.8 254.452 40.92 254.716 41.16C254.98 41.4 255.16 41.676 255.256 41.988L263.104 64.992L263.14 65.208C263.14 65.424 263.056 65.616 262.888 65.784C262.744 65.928 262.564 66 262.348 66H255.544C254.776 66 254.236 65.592 253.924 64.776L253.024 62.256H244.24L243.34 64.776ZM248.632 47.748L246.076 55.236H251.188L248.632 47.748ZM292.25 40.8C292.514 40.8 292.742 40.896 292.934 41.088C293.126 41.28 293.222 41.508 293.222 41.772V47.568C293.222 47.832 293.126 48.06 292.934 48.252C292.742 48.444 292.514 48.54 292.25 48.54H284.51V65.028C284.51 65.292 284.414 65.52 284.222 65.712C284.03 65.904 283.802 66 283.538 66H276.122C275.858 66 275.63 65.904 275.438 65.712C275.246 65.52 275.15 65.292 275.15 65.028V48.54H267.41C267.146 48.54 266.918 48.444 266.726 48.252C266.534 48.06 266.438 47.832 266.438 47.568V41.772C266.438 41.508 266.534 41.28 266.726 41.088C266.918 40.896 267.146 40.8 267.41 40.8H292.25ZM316.032 58.62H322.548C322.812 58.62 323.04 58.716 323.232 58.908C323.424 59.1 323.52 59.328 323.52 59.592V65.028C323.52 65.292 323.424 65.52 323.232 65.712C323.04 65.904 322.812 66 322.548 66H299.724C299.46 66 299.232 65.904 299.04 65.712C298.848 65.52 298.752 65.292 298.752 65.028V59.592C298.752 59.328 298.848 59.1 299.04 58.908C299.232 58.716 299.46 58.62 299.724 58.62H306.312V48.18H299.724C299.46 48.18 299.232 48.084 299.04 47.892C298.848 47.7 298.752 47.472 298.752 47.208V41.772C298.752 41.508 298.848 41.28 299.04 41.088C299.232 40.896 299.46 40.8 299.724 40.8H322.548C322.812 40.8 323.04 40.896 323.232 41.088C323.424 41.28 323.52 41.508 323.52 41.772V47.208C323.52 47.472 323.424 47.7 323.232 47.892C323.04 48.084 322.812 48.18 322.548 48.18H316.032V58.62ZM357.31 64.74C357.406 64.884 357.454 65.04 357.454 65.208C357.454 65.424 357.37 65.616 357.202 65.784C357.058 65.928 356.878 66 356.662 66H347.374C346.822 66 346.39 65.808 346.078 65.424L339.814 57.684V65.028C339.814 65.292 339.718 65.52 339.526 65.712C339.334 65.904 339.106 66 338.842 66H331.426C331.162 66 330.934 65.904 330.742 65.712C330.55 65.52 330.454 65.292 330.454 65.028V41.772C330.454 41.508 330.55 41.28 330.742 41.088C330.934 40.896 331.162 40.8 331.426 40.8H338.842C339.106 40.8 339.334 40.896 339.526 41.088C339.718 41.28 339.814 41.508 339.814 41.772V48.54L345.502 41.412C345.862 41.004 346.306 40.8 346.834 40.8H355.51C355.726 40.8 355.906 40.884 356.05 41.052C356.218 41.196 356.302 41.376 356.302 41.592C356.302 41.784 356.242 41.952 356.122 42.096L347.59 52.5L357.31 64.74ZM368.563 64.776C368.251 65.592 367.711 66 366.943 66H360.139C359.923 66 359.731 65.928 359.563 65.784C359.419 65.616 359.347 65.424 359.347 65.208L359.383 64.992L367.231 41.988C367.327 41.676 367.507 41.4 367.771 41.16C368.035 40.92 368.395 40.8 368.851 40.8H378.859C379.315 40.8 379.675 40.92 379.939 41.16C380.203 41.4 380.383 41.676 380.479 41.988L388.327 64.992L388.363 65.208C388.363 65.424 388.279 65.616 388.111 65.784C387.967 65.928 387.787 66 387.571 66H380.767C379.999 66 379.459 65.592 379.147 64.776L378.247 62.256H369.463L368.563 64.776ZM373.855 47.748L371.299 55.236H376.411L373.855 47.748Z" fill="#024284"/>
</g>
<defs>
<filter id="filter0_d" x="7.53494" y="10.6394" width="89.1106" height="91.3691" filterUnits="userSpaceOnUse" color-interpolation-filters="sRGB">
<feFlood flood-opacity="0" result="BackgroundImageFix"/>
<feColorMatrix in="SourceAlpha" type="matrix" values="0 0 0 0 0 0 0 0 0 0 0 0 0 0 0 0 0 0 127 0"/>
<feOffset dx="-1" dy="2"/>
<feGaussianBlur stdDeviation="1.5"/>
<feColorMatrix type="matrix" values="0 0 0 0 0 0 0 0 0 0 0 0 0 0 0 0 0 0 0.25 0"/>
<feBlend mode="normal" in2="BackgroundImageFix" result="effect1_dropShadow"/>
<feBlend mode="normal" in="SourceGraphic" in2="effect1_dropShadow" result="shape"/>
</filter>
<filter id="filter1_d" x="69.5" y="73.5" width="81" height="81" filterUnits="userSpaceOnUse" color-interpolation-filters="sRGB">
<feFlood flood-opacity="0" result="BackgroundImageFix"/>
<feColorMatrix in="SourceAlpha" type="matrix" values="0 0 0 0 0 0 0 0 0 0 0 0 0 0 0 0 0 0 127 0"/>
<feOffset dx="-1" dy="2"/>
<feGaussianBlur stdDeviation="1.5"/>
<feColorMatrix type="matrix" values="0 0 0 0 0 0 0 0 0 0 0 0 0 0 0 0 0 0 0.25 0"/>
<feBlend mode="normal" in2="BackgroundImageFix" result="effect1_dropShadow"/>
<feBlend mode="normal" in="SourceGraphic" in2="effect1_dropShadow" result="shape"/>
</filter>
<filter id="filter2_d" x="152.9" y="97.44" width="134.19" height="31.92" filterUnits="userSpaceOnUse" color-interpolation-filters="sRGB">
<feFlood flood-opacity="0" result="BackgroundImageFix"/>
<feColorMatrix in="SourceAlpha" type="matrix" values="0 0 0 0 0 0 0 0 0 0 0 0 0 0 0 0 0 0 127 0"/>
<feOffset dx="-2" dy="2"/>
<feGaussianBlur stdDeviation="1.5"/>
<feColorMatrix type="matrix" values="0 0 0 0 0 0 0 0 0 0 0 0 0 0 0 0 0 0 0.25 0"/>
<feBlend mode="normal" in2="BackgroundImageFix" result="effect1_dropShadow"/>
<feBlend mode="normal" in="SourceGraphic" in2="effect1_dropShadow" result="shape"/>
</filter>
<filter id="filter3_d" x="105.16" y="39.44" width="284.203" height="31.92" filterUnits="userSpaceOnUse" color-interpolation-filters="sRGB">
<feFlood flood-opacity="0" result="BackgroundImageFix"/>
<feColorMatrix in="SourceAlpha" type="matrix" values="0 0 0 0 0 0 0 0 0 0 0 0 0 0 0 0 0 0 127 0"/>
<feOffset dx="-2" dy="2"/>
<feGaussianBlur stdDeviation="1.5"/>
<feColorMatrix type="matrix" values="0 0 0 0 0 0 0 0 0 0 0 0 0 0 0 0 0 0 0.25 0"/>
<feBlend mode="normal" in2="BackgroundImageFix" result="effect1_dropShadow"/>
<feBlend mode="normal" in="SourceGraphic" in2="effect1_dropShadow" result="shape"/>
</filter>
</defs>
</svg>
