<svg width="380" height="150" viewBox="0 0 380 150" fill="none" xmlns="http://www.w3.org/2000/svg">
<g filter="url(#filter0_d)">
<path d="M87.8851 33.1025L79.0148 35.5478C76.8301 32.3347 74.1129 29.6312 71.034 27.5133L73.2871 18.373C73.3688 18.033 73.0431 17.6002 72.5411 17.3976L64.8072 14.276C64.3171 14.0782 63.7702 14.1588 63.5928 14.4602L58.8619 22.5932C55.1801 21.968 51.3468 22.0276 47.5308 22.8187L42.8564 14.9279C42.6851 14.6293 42.1611 14.6186 41.6614 14.8402L33.9132 18.2764C33.4136 18.4979 33.0654 18.8954 33.1435 19.2354L35.3593 28.257C32.1687 30.563 29.4647 33.4026 27.3255 36.5992L18.4364 34.4962C18.1057 34.4201 17.6753 34.7629 17.466 35.281L14.2423 43.262C14.038 43.7678 14.1047 44.3255 14.3955 44.5003L22.2448 49.1605C21.5519 52.9409 21.5255 56.8612 22.2148 60.7475L14.31 65.7417C14.0141 65.9235 13.9074 66.4973 14.1131 67.0036L17.3023 74.8543C17.5079 75.3606 17.9736 75.6705 18.3078 75.583L27.2204 73.1189C29.4051 76.332 32.1392 79.028 35.2266 81.1421L32.9904 90.2749C32.9087 90.615 33.2429 91.0439 33.7364 91.2503L41.4703 94.3719C41.9604 94.5697 42.5073 94.4892 42.6847 94.1878L47.4157 86.0547C51.0974 86.68 54.9307 86.6204 58.7467 85.8293L63.456 93.8058C63.6273 94.1045 64.1862 94.2009 64.6858 93.9794L72.434 90.5432C72.9336 90.3216 73.247 89.8384 73.1689 89.4984L70.9561 80.4349C74.1466 78.1289 76.8437 75.2722 78.9794 72.067L87.8616 74.1528C88.1923 74.2289 88.6192 73.8775 88.8319 73.368L92.0557 65.387C92.2599 64.8812 92.1933 64.3235 91.9024 64.1487L84.0532 59.4886C84.746 55.7081 84.7725 51.7879 84.0831 47.9015L91.9033 42.9449C92.1992 42.7631 92.2212 42.2268 92.0155 41.7206L88.8264 33.8698C88.6003 33.3625 88.2158 33.0065 87.8851 33.1025Z" fill="#F06E10" stroke="#F06E10" stroke-width="5" stroke-miterlimit="10" stroke-linecap="round" stroke-linejoin="round"/>
<path d="M61.9398 76.2103C73.8029 70.9493 79.4611 56.939 74.5776 44.9176C69.6941 32.8961 56.1184 27.4158 44.2553 32.6768C32.3921 37.9379 26.734 51.9482 31.6175 63.9696C36.501 75.991 50.0767 81.4714 61.9398 76.2103Z" fill="#F4F4F4" stroke="#F06E10" stroke-width="6" stroke-miterlimit="10"/>
</g>
<g filter="url(#filter1_d)">
<path d="M140.514 104.5L132.908 103.367C132.229 100.184 130.981 97.2094 129.27 94.5585L133.871 88.3626C134.04 88.1315 133.925 87.6922 133.601 87.3685L128.615 82.3826C128.299 82.0666 127.852 81.9433 127.62 82.1129L121.424 86.7058C118.78 84.9873 115.805 83.7389 112.615 83.053L111.482 75.4701C111.443 75.185 111.042 75 110.588 75H103.536C103.081 75 102.688 75.185 102.642 75.4701L101.524 83.0839C98.341 83.762 95.3661 85.0104 92.7148 86.7212L86.5183 82.1206C86.2871 81.951 85.8478 82.0666 85.5241 82.3903L80.5376 87.3762C80.2216 87.6922 80.0983 88.1392 80.2678 88.3704L84.8613 94.5662C83.1426 97.2094 81.894 100.184 81.2081 103.374L73.5472 104.507C73.262 104.546 73 104.947 73 105.401V112.452C73 112.907 73.262 113.3 73.5472 113.346L81.1927 114.479C81.8709 117.662 83.1349 120.636 84.8536 123.287L80.2678 129.483C80.0983 129.714 80.2216 130.154 80.5376 130.477L85.5241 135.463C85.8401 135.779 86.2871 135.903 86.5183 135.733L92.7148 131.14C95.3584 132.859 98.3333 134.107 101.524 134.793L102.657 142.453C102.696 142.738 103.096 143 103.551 143H110.603C111.058 143 111.451 142.738 111.497 142.453L112.63 134.808C115.813 134.13 118.788 132.866 121.439 131.148L127.636 135.733C127.867 135.903 128.306 135.779 128.63 135.463L133.617 130.477C133.933 130.161 134.056 129.714 133.886 129.483L129.293 123.287C131.012 120.644 132.26 117.67 132.946 114.479L140.53 113.346C140.815 113.308 141 112.907 141 112.452V105.401C140.985 104.939 140.8 104.538 140.514 104.5Z" fill="#024284" stroke="#024284" stroke-width="3" stroke-miterlimit="10" stroke-linecap="round" stroke-linejoin="round"/>
<path d="M107 131.667C119.518 131.667 129.667 121.518 129.667 109C129.667 96.4816 119.518 86.3333 107 86.3333C94.4815 86.3333 84.3333 96.4816 84.3333 109C84.3333 121.518 94.4815 131.667 107 131.667Z" fill="#F4F4F4" stroke="#024284" stroke-width="12" stroke-miterlimit="10"/>
</g>
<g filter="url(#filter2_d)">
<path d="M159.116 118.776C158.804 119.592 158.264 120 157.496 120H150.692C150.476 120 150.284 119.928 150.116 119.784C149.972 119.616 149.9 119.424 149.9 119.208L149.936 118.992L157.784 95.988C157.88 95.676 158.06 95.4 158.324 95.16C158.588 94.92 158.948 94.8 159.404 94.8H169.412C169.868 94.8 170.228 94.92 170.492 95.16C170.756 95.4 170.936 95.676 171.032 95.988L178.88 118.992L178.916 119.208C178.916 119.424 178.832 119.616 178.664 119.784C178.52 119.928 178.34 120 178.124 120H171.32C170.552 120 170.012 119.592 169.7 118.776L168.8 116.256H160.016L159.116 118.776ZM164.408 101.748L161.852 109.236H166.964L164.408 101.748ZM212.058 118.884C212.106 118.98 212.13 119.088 212.13 119.208C212.13 119.424 212.046 119.616 211.878 119.784C211.734 119.928 211.554 120 211.338 120H203.166C202.83 120 202.518 119.916 202.23 119.748C201.966 119.58 201.774 119.364 201.654 119.1L198.486 111.972H195.462V119.028C195.462 119.292 195.366 119.52 195.174 119.712C194.982 119.904 194.754 120 194.49 120H186.714C186.45 120 186.222 119.904 186.03 119.712C185.838 119.52 185.742 119.292 185.742 119.028V95.772C185.742 95.508 185.838 95.28 186.03 95.088C186.222 94.896 186.45 94.8 186.714 94.8H200.718C202.878 94.8 204.762 95.148 206.37 95.844C208.002 96.54 209.25 97.548 210.114 98.868C210.978 100.188 211.41 101.736 211.41 103.512C211.41 106.776 210.15 109.14 207.63 110.604L212.058 118.884ZM199.962 105.312C200.49 105.312 200.898 105.144 201.186 104.808C201.474 104.448 201.618 104.004 201.618 103.476C201.618 102.948 201.474 102.492 201.186 102.108C200.922 101.7 200.514 101.496 199.962 101.496H195.462V105.312H199.962ZM236.128 112.62H242.644C242.908 112.62 243.136 112.716 243.328 112.908C243.52 113.1 243.616 113.328 243.616 113.592V119.028C243.616 119.292 243.52 119.52 243.328 119.712C243.136 119.904 242.908 120 242.644 120H219.82C219.556 120 219.328 119.904 219.136 119.712C218.944 119.52 218.848 119.292 218.848 119.028V113.592C218.848 113.328 218.944 113.1 219.136 112.908C219.328 112.716 219.556 112.62 219.82 112.62H226.408V102.18H219.82C219.556 102.18 219.328 102.084 219.136 101.892C218.944 101.7 218.848 101.472 218.848 101.208V95.772C218.848 95.508 218.944 95.28 219.136 95.088C219.328 94.896 219.556 94.8 219.82 94.8H242.644C242.908 94.8 243.136 94.896 243.328 95.088C243.52 95.28 243.616 95.508 243.616 95.772V101.208C243.616 101.472 243.52 101.7 243.328 101.892C243.136 102.084 242.908 102.18 242.644 102.18H236.128V112.62ZM278.09 109.596C278.09 113.268 276.866 115.98 274.418 117.732C271.994 119.484 268.754 120.36 264.698 120.36C260.642 120.36 257.39 119.484 254.942 117.732C252.518 115.98 251.306 113.244 251.306 109.524V105.276C251.306 102.828 251.882 100.8 253.034 99.192C254.21 97.56 255.806 96.36 257.822 95.592C259.838 94.824 262.13 94.44 264.698 94.44C267.266 94.44 269.546 94.824 271.538 95.592C273.554 96.36 275.15 97.548 276.326 99.156C277.502 100.764 278.09 102.78 278.09 105.204V109.596ZM261.026 110.28C261.026 111.264 261.35 112.02 261.998 112.548C262.67 113.076 263.57 113.34 264.698 113.34C265.826 113.34 266.714 113.076 267.362 112.548C268.034 111.996 268.37 111.228 268.37 110.244V104.556C268.37 103.572 268.034 102.816 267.362 102.288C266.714 101.736 265.826 101.46 264.698 101.46C263.57 101.46 262.67 101.724 261.998 102.252C261.35 102.78 261.026 103.536 261.026 104.52V110.28Z" fill="#F06E10"/>
</g>
<path d="M113.188 91.696C113.668 90.832 114.356 90.4 115.252 90.4H124.036C124.388 90.4 124.692 90.528 124.948 90.784C125.204 91.04 125.332 91.344 125.332 91.696V122.704C125.332 123.056 125.204 123.36 124.948 123.616C124.692 123.872 124.388 124 124.036 124H115.348C114.996 124 114.692 123.872 114.436 123.616C114.18 123.36 114.052 123.056 114.052 122.704V107.824L110.548 114.736C110.452 114.96 110.228 115.216 109.876 115.504C109.524 115.792 109.076 115.936 108.532 115.936H105.268C104.724 115.936 104.276 115.792 103.924 115.504C103.572 115.216 103.348 114.96 103.252 114.736L99.748 107.824V122.704C99.748 123.056 99.62 123.36 99.364 123.616C99.108 123.872 98.804 124 98.452 124H89.764C89.412 124 89.108 123.872 88.852 123.616C88.596 123.36 88.468 123.056 88.468 122.704V91.696C88.468 91.344 88.596 91.04 88.852 90.784C89.108 90.528 89.412 90.4 89.764 90.4H98.548C99.444 90.4 100.132 90.832 100.612 91.696L106.9 103.216L113.188 91.696Z" fill="#F06E10"/>
<path d="M46.488 64.368C46.072 65.456 45.352 66 44.328 66H35.256C34.968 66 34.712 65.904 34.488 65.712C34.296 65.488 34.2 65.232 34.2 64.944L34.248 64.656L44.712 33.984C44.84 33.568 45.08 33.2 45.432 32.88C45.784 32.56 46.264 32.4 46.872 32.4H60.216C60.824 32.4 61.304 32.56 61.656 32.88C62.008 33.2 62.248 33.568 62.376 33.984L72.84 64.656L72.888 64.944C72.888 65.232 72.776 65.488 72.552 65.712C72.36 65.904 72.12 66 71.832 66H62.76C61.736 66 61.016 65.456 60.6 64.368L59.4 61.008H47.688L46.488 64.368ZM53.544 41.664L50.136 51.648H56.952L53.544 41.664Z" fill="#024284"/>
<g filter="url(#filter3_d)">
<path d="M113.3 66.4746C109.268 66.4746 106.064 65.5986 103.688 63.8466C101.336 62.0946 100.16 59.3586 100.16 55.6386V41.8866C100.16 41.6226 100.256 41.3946 100.448 41.2026C100.64 41.0106 100.868 40.9146 101.132 40.9146H108.656C108.92 40.9146 109.148 41.0106 109.34 41.2026C109.532 41.3946 109.628 41.6226 109.628 41.8866V56.2146C109.628 57.1986 109.952 57.9546 110.6 58.4826C111.272 59.0106 112.172 59.2746 113.3 59.2746C114.428 59.2746 115.316 59.0106 115.964 58.4826C116.636 57.9546 116.972 57.1986 116.972 56.2146V41.8866C116.972 41.6226 117.068 41.3946 117.26 41.2026C117.452 41.0106 117.68 40.9146 117.944 40.9146H125.468C125.732 40.9146 125.96 41.0106 126.152 41.2026C126.344 41.3946 126.44 41.6226 126.44 41.8866V55.6386C126.44 59.3586 125.252 62.0946 122.876 63.8466C120.524 65.5986 117.332 66.4746 113.3 66.4746ZM157.026 40.9146C157.29 40.9146 157.518 41.0106 157.71 41.2026C157.902 41.3946 157.998 41.6226 157.998 41.8866V47.6826C157.998 47.9466 157.902 48.1746 157.71 48.3666C157.518 48.5586 157.29 48.6546 157.026 48.6546H149.286V65.1426C149.286 65.4066 149.19 65.6346 148.998 65.8266C148.806 66.0186 148.578 66.1146 148.314 66.1146H140.898C140.634 66.1146 140.406 66.0186 140.214 65.8266C140.022 65.6346 139.926 65.4066 139.926 65.1426V48.6546H132.186C131.922 48.6546 131.694 48.5586 131.502 48.3666C131.31 48.1746 131.214 47.9466 131.214 47.6826V41.8866C131.214 41.6226 131.31 41.3946 131.502 41.2026C131.694 41.0106 131.922 40.9146 132.186 40.9146H157.026ZM189.304 55.7106C189.304 59.3826 188.08 62.0946 185.632 63.8466C183.208 65.5986 179.968 66.4746 175.912 66.4746C171.856 66.4746 168.604 65.5986 166.156 63.8466C163.732 62.0946 162.52 59.3586 162.52 55.6386V51.3906C162.52 48.9426 163.096 46.9146 164.248 45.3066C165.424 43.6746 167.02 42.4746 169.036 41.7066C171.052 40.9386 173.344 40.5546 175.912 40.5546C178.48 40.5546 180.76 40.9386 182.752 41.7066C184.768 42.4746 186.364 43.6626 187.54 45.2706C188.716 46.8786 189.304 48.8946 189.304 51.3186V55.7106ZM172.24 56.3946C172.24 57.3786 172.564 58.1346 173.212 58.6626C173.884 59.1906 174.784 59.4546 175.912 59.4546C177.04 59.4546 177.928 59.1906 178.576 58.6626C179.248 58.1106 179.584 57.3426 179.584 56.3586V50.6706C179.584 49.6866 179.248 48.9306 178.576 48.4026C177.928 47.8506 177.04 47.5746 175.912 47.5746C174.784 47.5746 173.884 47.8386 173.212 48.3666C172.564 48.8946 172.24 49.6506 172.24 50.6346V56.3946ZM211.934 41.8866C212.294 41.2386 212.81 40.9146 213.482 40.9146H220.07C220.334 40.9146 220.562 41.0106 220.754 41.2026C220.946 41.3946 221.042 41.6226 221.042 41.8866V65.1426C221.042 65.4066 220.946 65.6346 220.754 65.8266C220.562 66.0186 220.334 66.1146 220.07 66.1146H213.554C213.29 66.1146 213.062 66.0186 212.87 65.8266C212.678 65.6346 212.582 65.4066 212.582 65.1426V53.9826L209.954 59.1666C209.882 59.3346 209.714 59.5266 209.45 59.7426C209.186 59.9586 208.85 60.0666 208.442 60.0666H205.994C205.586 60.0666 205.25 59.9586 204.986 59.7426C204.722 59.5266 204.554 59.3346 204.482 59.1666L201.854 53.9826V65.1426C201.854 65.4066 201.758 65.6346 201.566 65.8266C201.374 66.0186 201.146 66.1146 200.882 66.1146H194.366C194.102 66.1146 193.874 66.0186 193.682 65.8266C193.49 65.6346 193.394 65.4066 193.394 65.1426V41.8866C193.394 41.6226 193.49 41.3946 193.682 41.2026C193.874 41.0106 194.102 40.9146 194.366 40.9146H200.954C201.626 40.9146 202.142 41.2386 202.502 41.8866L207.218 50.5266L211.934 41.8866ZM233.34 64.8906C233.028 65.7066 232.488 66.1146 231.72 66.1146H224.916C224.7 66.1146 224.508 66.0426 224.34 65.8986C224.196 65.7306 224.124 65.5386 224.124 65.3226L224.16 65.1066L232.008 42.1026C232.104 41.7906 232.284 41.5146 232.548 41.2746C232.812 41.0346 233.172 40.9146 233.628 40.9146H243.636C244.092 40.9146 244.452 41.0346 244.716 41.2746C244.98 41.5146 245.16 41.7906 245.256 42.1026L253.104 65.1066L253.14 65.3226C253.14 65.5386 253.056 65.7306 252.888 65.8986C252.744 66.0426 252.564 66.1146 252.348 66.1146H245.544C244.776 66.1146 244.236 65.7066 243.924 64.8906L243.024 62.3706H234.24L233.34 64.8906ZM238.632 47.8626L236.076 55.3506H241.188L238.632 47.8626ZM282.25 40.9146C282.514 40.9146 282.742 41.0106 282.934 41.2026C283.126 41.3946 283.222 41.6226 283.222 41.8866V47.6826C283.222 47.9466 283.126 48.1746 282.934 48.3666C282.742 48.5586 282.514 48.6546 282.25 48.6546H274.51V65.1426C274.51 65.4066 274.414 65.6346 274.222 65.8266C274.03 66.0186 273.802 66.1146 273.538 66.1146H266.122C265.858 66.1146 265.63 66.0186 265.438 65.8266C265.246 65.6346 265.15 65.4066 265.15 65.1426V48.6546H257.41C257.146 48.6546 256.918 48.5586 256.726 48.3666C256.534 48.1746 256.438 47.9466 256.438 47.6826V41.8866C256.438 41.6226 256.534 41.3946 256.726 41.2026C256.918 41.0106 257.146 40.9146 257.41 40.9146H282.25ZM306.032 58.7346H312.548C312.812 58.7346 313.04 58.8306 313.232 59.0226C313.424 59.2146 313.52 59.4426 313.52 59.7066V65.1426C313.52 65.4066 313.424 65.6346 313.232 65.8266C313.04 66.0186 312.812 66.1146 312.548 66.1146H289.724C289.46 66.1146 289.232 66.0186 289.04 65.8266C288.848 65.6346 288.752 65.4066 288.752 65.1426V59.7066C288.752 59.4426 288.848 59.2146 289.04 59.0226C289.232 58.8306 289.46 58.7346 289.724 58.7346H296.312V48.2946H289.724C289.46 48.2946 289.232 48.1986 289.04 48.0066C288.848 47.8146 288.752 47.5866 288.752 47.3226V41.8866C288.752 41.6226 288.848 41.3946 289.04 41.2026C289.232 41.0106 289.46 40.9146 289.724 40.9146H312.548C312.812 40.9146 313.04 41.0106 313.232 41.2026C313.424 41.3946 313.52 41.6226 313.52 41.8866V47.3226C313.52 47.5866 313.424 47.8146 313.232 48.0066C313.04 48.1986 312.812 48.2946 312.548 48.2946H306.032V58.7346ZM347.31 64.8546C347.406 64.9986 347.454 65.1546 347.454 65.3226C347.454 65.5386 347.37 65.7306 347.202 65.8986C347.058 66.0426 346.878 66.1146 346.662 66.1146H337.374C336.822 66.1146 336.39 65.9226 336.078 65.5386L329.814 57.7986V65.1426C329.814 65.4066 329.718 65.6346 329.526 65.8266C329.334 66.0186 329.106 66.1146 328.842 66.1146H321.426C321.162 66.1146 320.934 66.0186 320.742 65.8266C320.55 65.6346 320.454 65.4066 320.454 65.1426V41.8866C320.454 41.6226 320.55 41.3946 320.742 41.2026C320.934 41.0106 321.162 40.9146 321.426 40.9146H328.842C329.106 40.9146 329.334 41.0106 329.526 41.2026C329.718 41.3946 329.814 41.6226 329.814 41.8866V48.6546L335.502 41.5266C335.862 41.1186 336.306 40.9146 336.834 40.9146H345.51C345.726 40.9146 345.906 40.9986 346.05 41.1666C346.218 41.3106 346.302 41.4906 346.302 41.7066C346.302 41.8986 346.242 42.0666 346.122 42.2106L337.59 52.6146L347.31 64.8546ZM358.563 64.8906C358.251 65.7066 357.711 66.1146 356.943 66.1146H350.139C349.923 66.1146 349.731 66.0426 349.563 65.8986C349.419 65.7306 349.347 65.5386 349.347 65.3226L349.383 65.1066L357.231 42.1026C357.327 41.7906 357.507 41.5146 357.771 41.2746C358.035 41.0346 358.395 40.9146 358.851 40.9146H368.859C369.315 40.9146 369.675 41.0346 369.939 41.2746C370.203 41.5146 370.383 41.7906 370.479 42.1026L378.327 65.1066L378.363 65.3226C378.363 65.5386 378.279 65.7306 378.111 65.8986C377.967 66.0426 377.787 66.1146 377.571 66.1146H370.767C369.999 66.1146 369.459 65.7066 369.147 64.8906L368.247 62.3706H359.463L358.563 64.8906ZM363.855 47.8626L361.299 55.3506H366.411L363.855 47.8626Z" fill="#024284"/>
</g>
<defs>
<filter id="filter0_d" x="7.53494" y="10.6394" width="89.1106" height="91.3691" filterUnits="userSpaceOnUse" color-interpolation-filters="sRGB">
<feFlood flood-opacity="0" result="BackgroundImageFix"/>
<feColorMatrix in="SourceAlpha" type="matrix" values="0 0 0 0 0 0 0 0 0 0 0 0 0 0 0 0 0 0 127 0"/>
<feOffset dx="-1" dy="2"/>
<feGaussianBlur stdDeviation="1.5"/>
<feColorMatrix type="matrix" values="0 0 0 0 0 0 0 0 0 0 0 0 0 0 0 0 0 0 0.25 0"/>
<feBlend mode="normal" in2="BackgroundImageFix" result="effect1_dropShadow"/>
<feBlend mode="normal" in="SourceGraphic" in2="effect1_dropShadow" result="shape"/>
</filter>
<filter id="filter1_d" x="67.5" y="72.5" width="77" height="77" filterUnits="userSpaceOnUse" color-interpolation-filters="sRGB">
<feFlood flood-opacity="0" result="BackgroundImageFix"/>
<feColorMatrix in="SourceAlpha" type="matrix" values="0 0 0 0 0 0 0 0 0 0 0 0 0 0 0 0 0 0 127 0"/>
<feOffset dx="-1" dy="2"/>
<feGaussianBlur stdDeviation="1.5"/>
<feColorMatrix type="matrix" values="0 0 0 0 0 0 0 0 0 0 0 0 0 0 0 0 0 0 0.25 0"/>
<feBlend mode="normal" in2="BackgroundImageFix" result="effect1_dropShadow"/>
<feBlend mode="normal" in="SourceGraphic" in2="effect1_dropShadow" result="shape"/>
</filter>
<filter id="filter2_d" x="144.9" y="93.44" width="134.19" height="31.92" filterUnits="userSpaceOnUse" color-interpolation-filters="sRGB">
<feFlood flood-opacity="0" result="BackgroundImageFix"/>
<feColorMatrix in="SourceAlpha" type="matrix" values="0 0 0 0 0 0 0 0 0 0 0 0 0 0 0 0 0 0 127 0"/>
<feOffset dx="-2" dy="2"/>
<feGaussianBlur stdDeviation="1.5"/>
<feColorMatrix type="matrix" values="0 0 0 0 0 0 0 0 0 0 0 0 0 0 0 0 0 0 0.25 0"/>
<feBlend mode="normal" in2="BackgroundImageFix" result="effect1_dropShadow"/>
<feBlend mode="normal" in="SourceGraphic" in2="effect1_dropShadow" result="shape"/>
</filter>
<filter id="filter3_d" x="95.16" y="39.5546" width="284.203" height="31.92" filterUnits="userSpaceOnUse" color-interpolation-filters="sRGB">
<feFlood flood-opacity="0" result="BackgroundImageFix"/>
<feColorMatrix in="SourceAlpha" type="matrix" values="0 0 0 0 0 0 0 0 0 0 0 0 0 0 0 0 0 0 127 0"/>
<feOffset dx="-2" dy="2"/>
<feGaussianBlur stdDeviation="1.5"/>
<feColorMatrix type="matrix" values="0 0 0 0 0 0 0 0 0 0 0 0 0 0 0 0 0 0 0.25 0"/>
<feBlend mode="normal" in2="BackgroundImageFix" result="effect1_dropShadow"/>
<feBlend mode="normal" in="SourceGraphic" in2="effect1_dropShadow" result="shape"/>
</filter>
</defs>
</svg>
