<svg width="84" height="60" viewBox="0 0 84 60" fill="none" xmlns="http://www.w3.org/2000/svg">
<path d="M76.272 60H8.32638C4.05828 60 0.598541 56.4655 0.598541 52.1052V7.89478C0.598541 3.53448 4.05828 -1.39782e-06 8.32638 -1.39782e-06H76.272C80.5399 -1.39782e-06 83.9999 3.53448 83.9999 7.89478V52.1052C83.9999 56.4655 80.5399 60 76.272 60Z" fill="#006FCF"/>
<path d="M83.9426 48.1722V34.2157H83.2131H32.2413L30.9228 36.1215L29.6192 34.2157H14.7508V49.0884H29.5623L30.8529 47.1538L32.1855 49.0884H41.4566V45.8794H41.3588C42.5119 45.8794 43.5595 45.6665 44.4873 45.3146V49.0884H50.9529V46.9256L52.58 49.0884H80.6326C81.4399 49.0884 82.1965 48.9484 82.8754 48.6969C83.257 48.5553 83.6147 48.3788 83.9426 48.1722ZM73.732 29.0978H79.9879V14.2235H73.3107V16.6022L71.8249 14.2235H66.0036V17.2312L64.6993 14.2235H55.0765C54.6144 14.2235 54.1631 14.2581 53.7261 14.3279C53.354 14.3876 52.992 14.4726 52.6429 14.5841C52.3685 14.6716 52.1019 14.7751 51.8451 14.8951C51.5438 15.0367 51.2552 15.1999 50.9816 15.3864V14.875V14.2235H19.5767L18.7215 16.8172L17.8511 14.2235H10.544V17.2629L9.22515 14.2235H3.26403L0.59845 20.5857V27.7737V29.0978H4.82052L5.60612 26.9627H7.09304L7.89288 29.0978H40.378V26.9342L42.0051 29.0978H50.9816V28.6217V28.016C51.2136 28.1692 51.4544 28.3029 51.699 28.4199C51.9444 28.5359 52.1952 28.6349 52.4489 28.7184C52.7626 28.823 53.0814 28.902 53.3987 28.9607C53.917 29.0566 54.4326 29.0978 54.9229 29.0978H60.2947L61.0803 26.9627H62.5669L63.3662 29.0978H72.3715V26.8908L73.732 29.0978Z" fill="#F7F7F7"/>
<path d="M24.8923 38.6719V36.6367H17.0375V46.6675H24.8923V44.6463H19.3946V42.6268H24.7666V40.6204H19.3946V38.6719H24.8923ZM33.0698 46.6675H36.0155L32.0737 41.6092L35.9876 36.6367H33.1267L30.7133 39.8179L28.3153 36.6367H25.3694L29.2969 41.6517L25.3831 46.6675H28.2447L30.6574 43.443L33.0698 46.6675ZM36.5345 36.6367V46.6675H38.8908V43.3564H41.8504C43.997 43.3564 45.3285 41.9241 45.3285 39.9896C45.3285 37.9988 44.0249 36.6367 41.9345 36.6367H36.5345ZM42.9585 40.0036C42.9585 40.6782 42.538 41.2362 41.7103 41.2362H38.8908V38.7725H41.7103C42.538 38.7725 42.9585 39.3165 42.9585 40.0036ZM48.962 43.056H50.0703L53.0015 46.6675H55.9329L52.6653 42.9702C54.3348 42.6545 55.3302 41.4227 55.3302 39.8179C55.3302 37.9407 54.0258 36.6367 51.9358 36.6367H46.6057V46.6675H48.962V43.056ZM51.7253 38.6859C52.5668 38.6859 53.016 39.2446 53.016 39.933C53.016 40.6204 52.5668 41.1643 51.7253 41.1643H48.962V38.6859H51.7253ZM64.8824 38.6719V36.6367H57.0276V46.6675H64.8824V44.6463H59.3839V42.6268H64.7559V40.6204H59.3839V38.6719H64.8824ZM71.348 44.6611H66.3132V46.6675H71.2777C73.3963 46.6675 74.659 45.349 74.659 43.4716C74.659 41.6802 73.5228 40.6349 71.6146 40.6349H69.3423C68.7809 40.6349 68.3887 40.2619 68.3887 39.6747C68.3887 39.0726 68.7809 38.6719 69.3423 38.6719H73.6061L74.4765 36.6367H69.4119C67.2943 36.6367 66.0316 37.9555 66.0316 39.7605C66.0316 41.6092 67.2245 42.6693 69.0902 42.6693H71.348C71.9086 42.6693 72.3154 43.0415 72.3154 43.6443C72.3154 44.2593 71.9086 44.6611 71.348 44.6611V44.6611ZM80.6897 44.6611H75.6541V46.6675H80.6186C82.738 46.6675 84 45.349 84 43.4716C84 41.6802 82.8637 40.6349 80.9563 40.6349H78.6841C78.1221 40.6349 77.7304 40.2619 77.7304 39.6747C77.7304 39.0726 78.1221 38.6719 78.6841 38.6719H82.947L83.8182 36.6367H78.7539C76.6352 36.6367 75.3733 37.9555 75.3733 39.7605C75.3733 41.6092 76.5662 42.6693 78.4319 42.6693H80.6897C81.2504 42.6693 81.6571 43.0415 81.6571 43.6443C81.6571 44.2593 81.2504 44.6611 80.6897 44.6611" fill="#006FCF"/>
<path d="M9.49138 26.6758H12.1425L7.94835 16.6446H4.84884L0.640472 26.6758H3.15142L3.97944 24.5261H8.64991L9.49138 26.6758ZM5.59204 20.3854L6.30782 18.5081L7.02284 20.3854L7.89249 22.6063H4.73686L5.59204 20.3854ZM14.9762 19.8266L14.9193 17.1182L17.641 26.6758H19.7731L22.494 17.1756L22.4379 19.8118V26.6758H24.7239V16.6446H20.5721L18.7066 23.7524L16.8274 16.6446H12.6894V26.6758H14.9762V19.8266ZM34.5148 18.6798V16.6446H26.66V26.6758H34.5148V24.6268H29.0165V22.6349H34.3883V20.6292H29.0165V18.6798H34.5148ZM38.5959 23.0652H39.7042L42.6362 26.6758H45.5676L42.2992 22.9786C43.9687 22.6634 44.9648 21.4307 44.9648 19.8266C44.9648 17.9494 43.6597 16.6446 41.5697 16.6446H36.2396V26.6758H38.5959V23.0652ZM41.3592 18.6946C42.2007 18.6946 42.6499 19.2533 42.6499 19.9413C42.6499 20.6292 42.2007 21.1732 41.3592 21.1732H38.5959V18.6946H41.3592ZM46.3108 26.6758H48.6671V22.2611V16.6446H46.3108V22.2037V26.6758ZM54.6846 26.6758H54.8111L55.7782 24.5407H55.0632C53.4498 24.5407 52.4961 23.5093 52.4961 21.7327V21.5895C52.4961 19.9983 53.3513 18.809 55.0353 18.809H57.5878V16.6446H54.839C51.8093 16.6446 50.154 18.7231 50.154 21.5747V21.7464C50.154 24.7272 51.8514 26.6618 54.6846 26.6758V26.6758ZM64.9655 26.6758H67.6159L63.4233 16.6446H60.3222L56.1154 26.6758H58.6256L59.4533 24.5261H64.1238L64.9655 26.6758ZM61.0667 20.3854L61.782 18.5081L62.4962 20.3854L63.3672 22.6063H60.2108L61.0667 20.3854ZM70.4638 20.6717L70.4358 19.8406L70.9266 20.6717L74.6853 26.6758H77.4355V16.6446H75.1353V22.4484L75.1632 23.1936L74.7285 22.4484L71.0523 16.6446H68.1641V26.6758H70.4638V20.6717Z" fill="#006FCF"/>
</svg>
