<svg width="31" height="30" viewBox="0 0 31 30" fill="none" xmlns="http://www.w3.org/2000/svg">
<g clip-path="url(#clip0)">
<path d="M28.175 0H3.80005C2.25317 0 0.987549 1.26562 0.987549 2.8125V27.1875C0.987549 28.7344 2.25317 30 3.80005 30H15.9875V16.875H12.2375V13.125H15.9875V11.25C15.9875 8.15039 18.5129 5.625 21.6125 5.625H25.3625V9.375H21.6125C20.5813 9.375 19.7375 10.2188 19.7375 11.25V13.125H25.3625L24.425 16.875H19.7375V30H28.175C29.7219 30 30.9875 28.7344 30.9875 27.1875V2.8125C30.9875 1.26562 29.7219 0 28.175 0Z" fill="#FAFAFA"/>
</g>
<defs>
<clipPath id="clip0">
<rect width="30" height="30" fill="white" transform="translate(0.987549)"/>
</clipPath>
</defs>
</svg>
