<svg width="74" height="57" viewBox="0 0 74 57" fill="none" xmlns="http://www.w3.org/2000/svg">
<path d="M34.0342 48.7502L3.13661 54.6238C2.52049 54.7409 1.94986 54.2685 1.94986 53.6414V9.29497C1.94986 8.8147 2.29128 8.40226 2.7631 8.31257L33.6607 2.43898C34.2768 2.32185 34.8474 2.79423 34.8474 3.42139V47.7678C34.8474 48.2481 34.506 48.6605 34.0342 48.7502Z" stroke="#024284" stroke-width="3"/>
<path d="M16.0488 5.34033L16.0488 52.2437" stroke="#024284" stroke-width="2"/>
<path d="M11.5922 5.86157L11.5922 52.7649" stroke="#024284" stroke-width="2"/>
<path d="M29.5603 2.73462L29.5603 49.638" stroke="#024284" stroke-width="2"/>
<path d="M25.4481 3.25586L25.4481 50.1592" stroke="#024284" stroke-width="2"/>
<path d="M20.7485 4.81934L20.7485 51.7227" stroke="#024284" stroke-width="2"/>
<path d="M7.05466 7.42505L7.05466 54.3284" stroke="#024284" stroke-width="2"/>
<path d="M40.047 48.7502L70.9446 54.6238C71.5607 54.7409 72.1313 54.2685 72.1313 53.6414V9.29497C72.1313 8.8147 71.7899 8.40226 71.3181 8.31257L40.4205 2.43898C39.8044 2.32185 39.2338 2.79423 39.2338 3.42139V47.7678C39.2338 48.2481 39.5752 48.6605 40.047 48.7502Z" stroke="#024284" stroke-width="3"/>
<path d="M58.0323 5.34033L58.0323 52.2437" stroke="#024284" stroke-width="2"/>
<path d="M62.4889 5.86157L62.4889 52.7649" stroke="#024284" stroke-width="2"/>
<path d="M44.5208 2.73462L44.5208 49.638" stroke="#024284" stroke-width="2"/>
<path d="M48.6331 3.25586L48.6331 50.1592" stroke="#024284" stroke-width="2"/>
<path d="M53.3327 4.81934L53.3327 51.7227" stroke="#024284" stroke-width="2"/>
<path d="M67.0265 7.42505L67.0265 54.3284" stroke="#024284" stroke-width="2"/>
</svg>
