<svg width="31" height="30" viewBox="0 0 31 30" fill="none" xmlns="http://www.w3.org/2000/svg">
<g clip-path="url(#clip0)">
<path d="M28.1722 0H3.79718C2.25031 0 0.98468 1.26562 0.98468 2.8125V27.1875C0.98468 28.7344 2.25031 30 3.79718 30H28.1722C29.7191 30 30.9847 28.7344 30.9847 27.1875V2.8125C30.9847 1.26562 29.7191 0 28.1722 0ZM12.2347 24.375H8.48468V11.25H12.2347V24.375ZM10.3597 9.375C9.32257 9.375 8.48468 8.53711 8.48468 7.5C8.48468 6.46289 9.32257 5.625 10.3597 5.625C11.3968 5.625 12.2347 6.46289 12.2347 7.5C12.2347 8.53711 11.3968 9.375 10.3597 9.375ZM25.3597 24.375H21.6097V16.875C21.6097 15.8379 20.7718 15 19.7347 15C18.6976 15 17.8597 15.8379 17.8597 16.875V24.375H14.1097V11.25H17.8597V13.5762C18.6331 12.5156 19.8167 11.25 21.1409 11.25C23.473 11.25 25.3597 13.3477 25.3597 15.9375V24.375Z" fill="#FAFAFA"/>
</g>
<defs>
<clipPath id="clip0">
<rect width="30" height="30" fill="white" transform="translate(0.98468)"/>
</clipPath>
</defs>
</svg>
