<svg width="40" height="40" viewBox="0 0 40 40" fill="none" xmlns="http://www.w3.org/2000/svg">
<path d="M18.2812 0.625008C13.8906 1.23438 10.3046 3.81251 8.43746 7.69532C7.46871 9.71876 6.99996 12.25 7.26559 14.1016C7.71871 17.3359 10.2421 22.2188 14.6406 28.3594C16.2265 30.5781 18.8906 33.9922 19.2656 34.2891C19.539 34.5078 19.9922 34.5078 20.2656 34.2891C20.6718 33.9688 23.3828 30.4766 25.1328 28.0234C29.2578 22.2344 31.7109 17.4922 32.2265 14.3359C32.6328 11.875 31.8906 8.71876 30.3437 6.35157C28.4375 3.41407 25.5468 1.45313 22.1328 0.773445C21.1797 0.585945 19.1328 0.50782 18.2812 0.625008ZM21.9843 2.53907C26.3984 3.54688 29.6562 6.96094 30.4296 11.3984C30.5781 12.2266 30.5781 13.6484 30.4375 14.3906C29.8671 17.3359 27.289 22.0547 23.0937 27.8125C21.5703 29.9141 19.8672 32.1094 19.7656 32.1094C19.7265 32.1094 19.2343 31.5 18.6562 30.7656C13.1406 23.6406 9.76559 17.8672 9.09371 14.3906C8.75777 12.6563 9.12496 10.3672 10.039 8.45313C10.6093 7.26563 11.1953 6.44532 12.1875 5.46876C13.789 3.87501 15.6796 2.89845 17.9687 2.46095C18.7421 2.31251 21.2109 2.35938 21.9843 2.53907Z" fill="#FAFAFA"/>
<path d="M18.6093 7.10936C16.8124 7.57811 15.3436 9.05467 14.8827 10.8515C14.6171 11.9062 14.6639 12.8515 15.0389 13.9297C15.578 15.4765 17.0546 16.8047 18.7108 17.2265C19.3046 17.375 20.5233 17.375 21.1718 17.2187C23.4452 16.6875 25.1561 14.5 25.1561 12.1406C25.1561 10.6094 24.3358 8.96873 23.1014 8.01561C21.8514 7.05467 20.1483 6.71092 18.6093 7.10936ZM20.6483 8.78904C23.8124 9.46092 24.3593 13.8047 21.453 15.2344C20.1483 15.8828 18.6561 15.664 17.6093 14.6719C17.3671 14.4453 17.0858 14.1094 16.9764 13.9219C15.7499 11.8359 16.9296 9.24217 19.3358 8.74998C19.8046 8.65623 20.0624 8.66404 20.6483 8.78904Z" fill="#FAFAFA"/>
<path d="M13.1641 30.1953C10.1562 30.8984 8.10156 32.0859 7.4375 33.4922C7.26562 33.8672 7.22656 34.0547 7.22656 34.5703C7.22656 35.1015 7.25781 35.2656 7.45312 35.664C8.375 37.5469 11.6562 38.9219 16.5625 39.4687C17.7578 39.6015 21.7891 39.6015 22.9687 39.4609C27.0547 39 29.9062 38.0312 31.3437 36.6328C32.0781 35.914 32.3047 35.4219 32.3047 34.5312C32.2969 33.9297 32.2734 33.8203 32.0391 33.375C31.3516 32.0937 29.5547 31.039 26.9375 30.3594C25.4766 29.9765 25.25 29.9687 24.9141 30.3047C24.6016 30.625 24.5937 31.1406 24.9062 31.4844C25.0859 31.6875 25.25 31.7578 25.9375 31.9219C27.8828 32.375 29.375 33.0312 30.0937 33.75C30.4766 34.1406 30.5469 34.25 30.5469 34.4922C30.5469 34.8906 30.3672 35.1875 29.9062 35.5547C28.5781 36.6015 25.7266 37.4297 22.4219 37.7344C21.2656 37.8359 18.2656 37.8359 17.1094 37.7344C13.8125 37.4297 10.9531 36.6015 9.625 35.5547C9.16406 35.1875 8.98437 34.8906 8.98437 34.4922C8.98437 34.25 9.04687 34.1406 9.4375 33.7656C10.1875 33.0156 11.625 32.3828 13.6172 31.914C14.625 31.6719 14.8828 31.5156 14.9687 31.0547C15.0312 30.6953 14.8203 30.2812 14.4922 30.125C14.1641 29.9687 14.1172 29.9687 13.1641 30.1953Z" fill="#FAFAFA"/>
</svg>
