<svg width="26" height="40" viewBox="0 0 26 40" fill="none" xmlns="http://www.w3.org/2000/svg">
<path d="M11.2812 0.625008C6.89059 1.23438 3.30465 3.81251 1.43746 7.69532C0.468711 9.71876 -3.94588e-05 12.25 0.265586 14.1016C0.718711 17.3359 3.24215 22.2188 7.64059 28.3594C9.22652 30.5781 11.8906 33.9922 12.2656 34.2891C12.539 34.5078 12.9921 34.5078 13.2656 34.2891C13.6718 33.9688 16.3828 30.4766 18.1328 28.0234C22.2578 22.2344 24.7109 17.4922 25.2265 14.3359C25.6328 11.875 24.8906 8.71876 23.3437 6.35157C21.4375 3.41407 18.5468 1.45313 15.1328 0.773446C14.1797 0.585946 12.1328 0.507821 11.2812 0.625008ZM14.9843 2.53907C19.3984 3.54688 22.6562 6.96094 23.4297 11.3984C23.5781 12.2266 23.5781 13.6484 23.4375 14.3906C22.8672 17.3359 20.289 22.0547 16.0937 27.8125C14.5703 29.9141 12.8671 32.1094 12.7656 32.1094C12.7265 32.1094 12.2343 31.5 11.6562 30.7656C6.14059 23.6406 2.76559 17.8672 2.09371 14.3906C1.75777 12.6563 2.12496 10.3672 3.03902 8.45313C3.60934 7.26563 4.19527 6.44532 5.18746 5.46876C6.78902 3.87501 8.67965 2.89845 10.9687 2.46095C11.7421 2.31251 14.2109 2.35938 14.9843 2.53907Z" fill="#FAFAFA"/>
<path d="M11.6093 7.10936C9.81238 7.57811 8.34363 9.05467 7.88269 10.8515C7.61707 11.9062 7.66394 12.8515 8.03894 13.9297C8.57801 15.4765 10.0546 16.8047 11.7108 17.2265C12.3046 17.375 13.5233 17.375 14.1718 17.2187C16.4452 16.6875 18.1561 14.5 18.1561 12.1406C18.1561 10.6094 17.3358 8.96873 16.1014 8.01561C14.8514 7.05467 13.1483 6.71092 11.6093 7.10936ZM13.6483 8.78904C16.8124 9.46092 17.3593 13.8047 14.453 15.2344C13.1483 15.8828 11.6561 15.664 10.6093 14.6719C10.3671 14.4453 10.0858 14.1094 9.97644 13.9219C8.74988 11.8359 9.92957 9.24217 12.3358 8.74998C12.8046 8.65623 13.0624 8.66404 13.6483 8.78904Z" fill="#FAFAFA"/>
<path d="M6.16406 30.1953C3.15625 30.8984 1.10156 32.0859 0.4375 33.4922C0.265625 33.8672 0.226562 34.0547 0.226562 34.5703C0.226562 35.1015 0.257812 35.2656 0.453125 35.664C1.375 37.5469 4.65625 38.9219 9.5625 39.4687C10.7578 39.6015 14.7891 39.6015 15.9687 39.4609C20.0547 39 22.9062 38.0312 24.3437 36.6328C25.0781 35.914 25.3047 35.4219 25.3047 34.5312C25.2969 33.9297 25.2734 33.8203 25.0391 33.375C24.3516 32.0937 22.5547 31.039 19.9375 30.3594C18.4766 29.9765 18.25 29.9687 17.9141 30.3047C17.6016 30.625 17.5937 31.1406 17.9062 31.4844C18.0859 31.6875 18.25 31.7578 18.9375 31.9219C20.8828 32.375 22.375 33.0312 23.0937 33.75C23.4766 34.1406 23.5469 34.25 23.5469 34.4922C23.5469 34.8906 23.3672 35.1875 22.9062 35.5547C21.5781 36.6015 18.7266 37.4297 15.4219 37.7344C14.2656 37.8359 11.2656 37.8359 10.1094 37.7344C6.8125 37.4297 3.95312 36.6015 2.625 35.5547C2.16406 35.1875 1.98437 34.8906 1.98437 34.4922C1.98437 34.25 2.04687 34.1406 2.4375 33.7656C3.1875 33.0156 4.625 32.3828 6.61719 31.914C7.625 31.6719 7.88281 31.5156 7.96875 31.0547C8.03125 30.6953 7.82031 30.2812 7.49219 30.125C7.16406 29.9687 7.11719 29.9687 6.16406 30.1953Z" fill="#FAFAFA"/>
</svg>
