<svg width="60" height="27" viewBox="0 0 60 27" fill="none" xmlns="http://www.w3.org/2000/svg">
<path d="M26.1367 0.116383L25.1816 0.153116L24.6367 0.422504C23.9388 0.771484 23.2041 1.47557 22.9102 2.08169C22.5551 2.81026 22.5612 2.66944 22.5612 13.5919V23.5409L22.8612 24.1103C23.0265 24.4225 23.302 24.8327 23.4735 25.0225C23.8898 25.4817 24.5449 25.9286 25.0347 26.1001L25.4388 26.2347L41.3633 26.2531L57.2816 26.2715L57.7714 26.0266C58.6408 25.5858 59.2959 24.9307 59.7551 24.049L60 23.5837V13.1511V2.72455L59.7367 2.25312C59.2408 1.33475 58.6347 0.740871 57.8082 0.355158C57.4776 0.195974 57.3245 0.165361 56.6143 0.116383C55.7204 0.0612812 27.6551 0.0612812 26.1367 0.116383ZM53.0816 3.94291C52.9959 4.0225 51.4837 5.38169 49.7143 6.95516C47.9449 8.53475 45.4837 10.7327 44.2469 11.8409C41.4918 14.3021 41.7245 14.1184 41.5286 14.0266C41.3082 13.9286 40.7694 13.5062 39.6735 12.5878C37.702 10.9347 29.5959 3.94291 29.5347 3.85108C29.5163 3.82046 34.2061 3.79597 41.3694 3.79597H53.2347L53.0816 3.94291ZM56.3265 14.3266V22.5307H41.2959H26.2653V16.298C26.2653 10.1388 26.3143 6.18373 26.3816 6.18373C26.4245 6.18373 28.0898 7.59801 34.0776 12.7409C39.551 17.4368 40.5551 18.2817 40.8612 18.4347C41.149 18.5878 41.9327 18.6062 42.251 18.4715C42.4837 18.3735 43.3102 17.6694 46.7449 14.6388C51.3612 10.5674 55.8184 6.57557 56.1061 6.25108C56.1735 6.18373 56.2469 6.12251 56.2776 6.12251C56.302 6.12251 56.3265 9.81434 56.3265 14.3266Z" fill="#024284"/>
<path d="M2.01427 3.85746C1.25509 3.88807 1.16325 3.90644 0.893865 4.06563C0.189783 4.47583 -0.171442 5.47379 0.0979462 6.26971C0.23264 6.66767 0.710191 7.17583 1.11427 7.34726L1.43876 7.48807L5.51019 7.51256C10.2857 7.54318 17.3143 7.45134 17.6388 7.35338C17.9204 7.26767 18.4041 6.80236 18.5571 6.47175C18.6428 6.28195 18.6735 6.07379 18.6735 5.65746C18.6735 5.18603 18.649 5.06359 18.5143 4.78807C18.349 4.45746 17.9755 4.10236 17.6633 3.97379C17.3204 3.8391 4.52448 3.74114 2.01427 3.85746Z" fill="#024284"/>
<path d="M7.08367 11.3878C5.99388 11.5286 5.29592 12.9367 5.81633 13.9531C5.98163 14.2837 6.38571 14.6939 6.70408 14.847C6.94286 14.9633 7.10816 14.9694 11.4796 14.9878C16.1082 15.0061 17.4735 14.9633 17.8041 14.7919C18.0673 14.6572 18.5388 14.1061 18.6122 13.849C18.6918 13.5429 18.6918 12.7714 18.6 12.4776C18.5204 12.1959 18.153 11.7612 17.8408 11.5653C17.6571 11.4551 17.4857 11.4245 16.7571 11.3816C15.6796 11.3204 7.57347 11.3265 7.08367 11.3878Z" fill="#024284"/>
<path d="M13.2245 18.8572C12.4408 18.8939 12.2143 18.9674 11.853 19.3225C11.1734 19.9837 11.0939 21.0368 11.6632 21.8082C11.9449 22.1878 12.2939 22.3837 12.8571 22.4756C13.5183 22.5796 17.1184 22.5123 17.5592 22.3899C17.9571 22.2796 18.3061 21.9613 18.5265 21.5082C18.7347 21.0858 18.7531 20.3082 18.5633 19.8796C18.398 19.5123 17.951 19.0715 17.6571 18.9796C17.3265 18.8817 14.4367 18.8021 13.2245 18.8572Z" fill="#024284"/>
</svg>
