<svg width="31" height="31" viewBox="0 0 31 31" fill="none" xmlns="http://www.w3.org/2000/svg">
<path d="M11.0687 0.407263C10.9861 0.412541 9.12722 0.428374 6.93785 0.438929L2.95716 0.454762L2.71306 0.576149C2.07841 0.887533 1.47755 1.62113 1.16585 2.46029L0.985596 2.94056V15.3642V27.7879L1.0945 28.1152C1.45126 29.176 2.07841 29.9307 2.8445 30.221C3.18624 30.3529 13.9116 30.4268 22.4099 30.3582C29.624 30.3001 29.0269 30.3371 29.639 29.9148C30.191 29.5349 30.7431 28.6376 30.8633 27.9304C30.9759 27.2707 30.9985 24.7585 30.9797 14.0395C30.9684 7.1891 30.9496 3.35222 30.9233 3.15694C30.9008 2.98806 30.8144 2.64501 30.7243 2.39168C30.5966 2.01696 30.5103 1.8428 30.2624 1.49975C29.9319 1.03531 29.6766 0.808368 29.256 0.59726L28.9818 0.46004L24.5129 0.417818C20.1793 0.380874 11.3729 0.370319 11.0687 0.407263ZM25.9588 3.94332L27.7764 3.97498L27.6261 4.15443C26.9314 5.00413 16.0746 16.5728 15.977 16.5728C15.9132 16.5728 7.94053 8.13908 4.78602 4.72969L4.09879 3.98554L5.3681 3.95915C7.33967 3.91693 23.9233 3.9011 25.9588 3.94332ZM3.62562 7.92798C3.7871 8.08631 6.70877 11.2001 8.27475 12.8837C9.85201 14.5779 10.3177 15.0951 10.3177 15.1479C10.3177 15.227 8.94696 16.7945 5.73613 20.4044C3.67068 22.7214 3.59933 22.8005 3.55051 22.8005C3.53173 22.8005 3.50169 22.6422 3.49042 22.4469C3.45662 21.993 3.45662 7.81187 3.48667 7.81187C3.49793 7.81187 3.56177 7.86464 3.62562 7.92798ZM28.4561 8.5613C28.4899 9.52712 28.4636 22.7794 28.4298 22.8269C28.3997 22.8691 28.1106 22.5577 26.3343 20.5628C23.7506 17.6548 21.6326 15.227 21.61 15.1531C21.6063 15.132 21.6664 15.0423 21.7415 14.9579C22.0832 14.5726 24.8021 11.6435 26.3155 10.0285C27.2243 9.0574 28.0618 8.16547 28.1744 8.04409C28.2871 7.91742 28.3922 7.81714 28.4035 7.81187C28.4185 7.81187 28.4411 8.14964 28.4561 8.5613ZM13.8627 18.8634C14.6176 19.655 15.3198 20.3728 15.4212 20.4519C15.5602 20.5681 15.6653 20.605 15.8756 20.6261C16.3263 20.6683 16.4577 20.5628 18.0575 18.8634C19.0301 17.8289 19.4019 17.47 19.4958 17.47C19.5671 17.47 19.7662 17.6917 24.3627 22.848C28.3622 27.3288 27.8515 26.7535 27.8327 26.7852C27.8026 26.8274 10.9749 26.8538 7.37722 26.8168L4.05748 26.7852L7.54621 22.8691C11.5532 18.3725 12.4094 17.4225 12.4545 17.4173C12.4695 17.4173 13.1042 18.0664 13.8627 18.8634Z" fill="#FAFAFA"/>
</svg>
