<svg width="85" height="60" viewBox="0 0 85 60" fill="none" xmlns="http://www.w3.org/2000/svg">
<path d="M76.4058 60H8.46021C4.19211 60 0.732376 56.4655 0.732376 52.1052V7.89478C0.732376 3.53448 4.19211 -1.39782e-06 8.46021 -1.39782e-06H76.4058C80.6737 -1.39782e-06 84.1337 3.53448 84.1337 7.89478V52.1052C84.1337 56.4655 80.6737 60 76.4058 60Z" fill="#36495D"/>
<path d="M49.4378 42.8608H35.4261V17.1378H49.4378V42.8608Z" fill="#F16522"/>
<path d="M36.3162 29.9994C36.3162 24.7812 38.7082 20.1338 42.4325 17.1383C39.7082 14.9473 36.2717 13.6404 32.5361 13.6404C23.6924 13.6404 16.5237 20.9649 16.5237 29.9994C16.5237 39.0339 23.6924 46.3584 32.5361 46.3584C36.2717 46.3584 39.7082 45.0515 42.4325 42.8607C38.7082 39.865 36.3162 35.2176 36.3162 29.9994Z" fill="#E41B24"/>
<path d="M67.8412 40.1364V39.5021H67.6786L67.4924 39.9388L67.3062 39.5021H67.1436V40.1364H67.2573V39.6575L67.4324 40.0709H67.5514L67.7264 39.6564V40.1364H67.8412ZM66.8133 40.1364V39.6099H67.0215V39.5029H66.4916V39.6099H66.6996V40.1364H66.8133ZM68.3411 29.999C68.3411 39.0345 61.1724 46.3584 52.3287 46.3584C48.593 46.3584 45.1566 45.0512 42.4333 42.8604C46.1576 39.8656 48.5485 35.2174 48.5485 29.999C48.5485 24.7804 46.1576 20.1332 42.4333 17.1374C45.1566 14.9476 48.593 13.6404 52.3287 13.6404C61.1724 13.6404 68.3411 20.9643 68.3411 29.999" fill="#F89E1C"/>
</svg>
