<svg width="71" height="71" viewBox="0 0 71 71" fill="none" xmlns="http://www.w3.org/2000/svg">
<path d="M61.0547 22.8104C62.064 24.3487 62.8983 25.995 63.53 27.7337L63.0545 27.8764C63.3571 28.7093 63.6123 29.564 63.8168 30.4387C64.0214 31.3134 64.1702 32.1865 64.2654 33.0553L64.7682 33.029C64.9669 34.8424 64.9374 36.6379 64.6979 38.3919L64.1966 38.3007C63.9612 40.0246 63.5184 41.7089 62.8855 43.3301L63.3592 43.5277C62.7228 45.158 61.8985 46.7244 60.9042 48.204L60.477 47.9174C59.5246 49.3346 58.4125 50.6718 57.1566 51.9078L57.5248 52.2655C56.2845 53.4861 54.9071 54.6088 53.4076 55.6142L53.1065 55.2018C51.6775 56.16 50.1353 57.0102 48.4933 57.7349L48.7217 58.1872C47.1117 58.8978 45.4078 59.4893 43.6222 59.9458L43.4698 59.4672C42.6148 59.6858 41.7407 59.8731 40.8489 60.0271C39.957 60.1811 39.0666 60.2987 38.1798 60.381L38.2543 60.873C36.4021 61.0448 34.5646 61.065 32.7603 60.9442L32.7676 60.4511C30.9274 60.3279 29.1228 60.0558 27.374 59.6466L27.2817 60.1269C25.4467 59.6975 23.6716 59.1193 21.9789 58.4053L22.1578 57.9531C20.4438 57.2301 18.817 56.366 17.3015 55.375L17.0363 55.7812C15.4541 54.7466 13.9898 53.5755 12.67 52.2832L13.0182 51.9436C11.7057 50.6584 10.5402 49.2519 9.54821 47.7401L9.1268 47.9906C8.11751 46.4523 7.28326 44.806 6.65149 43.0674L7.12704 42.9247C6.82438 42.0917 6.5692 41.237 6.36467 40.3623C6.16015 39.4876 6.01135 38.6145 5.91614 37.7458L5.41335 37.772C5.2146 35.9586 5.2441 34.1631 5.48359 32.4091L5.98491 32.5003C6.22029 30.7764 6.66314 29.0922 7.29605 27.4709L6.8223 27.2733C7.45873 25.6431 8.28297 24.0767 9.2773 22.5971L9.7045 22.8837C10.6569 21.4664 11.769 20.1292 13.0249 18.8932L12.6567 18.5355C13.897 17.3149 15.2744 16.1922 16.7739 15.1868L17.075 15.5992C18.504 14.6411 20.0462 13.7909 21.6882 13.0662L21.4598 12.6138C23.0698 11.9032 24.7737 11.3117 26.5593 10.8552L26.7117 11.3338C27.5667 11.1152 28.4408 10.928 29.3327 10.7739C30.2245 10.6199 31.1149 10.5023 32.0018 10.4201L31.9272 9.92802C33.7794 9.75621 35.6169 9.736 37.4213 9.85681L37.4139 10.3499C39.2541 10.4731 41.0588 10.7452 42.8075 11.1545L42.8998 10.6741C44.7348 11.1036 46.51 11.6817 48.2026 12.3957L48.0238 12.8479C49.7377 13.5709 51.3645 14.4351 52.88 15.4261L53.1452 15.0198C54.7274 16.0544 56.1917 17.2255 57.5115 18.5179L57.1634 18.8574C58.4758 20.1426 59.6413 21.5491 60.6333 23.061L61.0547 22.8104Z" stroke="#024284" stroke-dasharray="5 5"/>
<path d="M37.015 35.5322C37.015 36.0753 36.3732 36.8716 35.0907 36.8716C33.8082 36.8716 33.1665 36.0753 33.1665 35.5322C33.1665 34.9892 33.8082 34.1929 35.0907 34.1929C36.3732 34.1929 37.015 34.9892 37.015 35.5322Z" stroke="#024284" stroke-width="2"/>
<rect x="0.757324" y="-0.0355161" width="20.3822" height="1.79852" rx="0.5" transform="matrix(0.726778 -0.686873 0.787871 0.615841 15.6753 52.5761)" stroke="#024284"/>
<rect x="0.757324" y="-0.0355161" width="20.3822" height="1.79852" rx="0.5" transform="matrix(0.726778 -0.686873 0.787871 0.615841 37.231 32.2036)" stroke="#024284"/>
<rect x="-0.0305465" y="-0.651357" width="20.6885" height="1.75899" rx="0.5" transform="matrix(-0.787871 -0.615841 0.726778 -0.686873 54.9021 51.173)" stroke="#024284"/>
<rect x="-0.0305465" y="-0.651357" width="20.6885" height="1.75899" rx="0.5" transform="matrix(-0.787871 -0.615841 0.726778 -0.686873 31.1995 32.6459)" stroke="#024284"/>
<rect x="32.6665" y="10.468" width="9.5272" height="4.84846" rx="0.5" transform="rotate(-90 32.6665 10.468)" stroke="#024284"/>
<path d="M8.85916 25.0049C7.74891 24.008 17.3708 10.3838 35.5041 10.3838C53.6374 10.3838 61.4088 25.0049 61.4088 25.0049" stroke="#024284" stroke-width="3"/>
<path d="M8.86012 46.0589C7.73753 47.016 17.4663 60.0952 35.8011 60.0952C54.1359 60.0952 61.9936 46.0589 61.9936 46.0589" stroke="#024284" stroke-width="3"/>
<line x1="32.7514" y1="6.95898" x2="37.4301" y2="6.95898" stroke="#024284"/>
<rect x="0.5" y="0.5" width="9.5272" height="4.84846" rx="0.5" transform="matrix(0 1 1 0 32.1665 60.0952)" stroke="#024284"/>
<line y1="-0.5" x2="4.67876" y2="-0.5" transform="matrix(1 0 0 -1 32.7514 63.6042)" stroke="#024284"/>
</svg>
