<svg width="40" height="40" viewBox="0 0 40 40" fill="none" xmlns="http://www.w3.org/2000/svg">
<path d="M19.2292 1.9884C19.0878 2.0204 18.8487 2.10269 18.7024 2.17583C18.478 2.29012 16.4731 3.80783 11.2926 7.78955L10.3658 8.50269L7.53655 8.51183L4.70728 8.52555L4.69265 10.6147L4.68289 12.7084L3.1268 13.961C1.30241 15.4375 1.15119 15.593 0.824357 16.3335C0.521918 17.0238 0.536552 16.4204 0.536552 26.6833C0.536552 36.7815 0.526796 36.3335 0.785332 36.809C0.921918 37.0558 1.33655 37.4627 1.59997 37.609C1.71216 37.673 1.94143 37.7644 2.10241 37.8101C2.39021 37.8924 2.89753 37.897 20.0195 37.897C36.078 37.897 37.6634 37.8924 37.9073 37.8238C38.4634 37.6684 38.8487 37.3941 39.1756 36.9233C39.5414 36.3975 39.517 37.1198 39.5024 26.5141L39.4878 17.0284L39.3268 16.5941C39.1463 16.1141 38.9658 15.7895 38.6829 15.4558C38.5756 15.3324 37.7268 14.6193 36.7951 13.8741L35.0975 12.5164L35.0731 10.5233L35.0487 8.52555L32.2683 8.51183L29.4878 8.49812L25.3414 5.38955C23.0634 3.67526 21.0926 2.22612 20.9658 2.16669C20.4634 1.92897 19.7951 1.8604 19.2292 1.9884ZM22.9902 6.22154L26.0048 8.47983L22.9561 8.49354C21.278 8.49812 18.5317 8.49812 16.8536 8.49354L13.8 8.47983L16.6341 6.3084C18.1951 5.11526 19.5365 4.09126 19.6244 4.03183C19.7122 3.9724 19.8244 3.93583 19.878 3.94497C19.9317 3.95412 21.3365 4.97812 22.9902 6.22154ZM32.878 15.017V19.4741L32.3561 19.8581C28.9658 22.3541 25.1463 25.1564 25.0731 25.1975C25 25.2433 24.8 25.1107 23.6634 24.2787C22.9365 23.7438 22.3317 23.2867 22.317 23.2638C22.2975 23.241 23 23.2227 24.0926 23.2227H25.9024V22.7198V22.217H23.3804L20.8536 22.2124L20.3658 21.8513C20.0975 21.6501 19.8536 21.4855 19.8244 21.4855C19.7951 21.4855 19.2585 21.8787 18.6292 22.3587L17.4878 23.2318L17.4731 20.361C17.4634 18.1347 17.4487 17.481 17.4 17.4535C17.3219 17.4078 8.38533 17.4078 8.30728 17.4535C8.2585 17.481 8.24387 17.8421 8.23411 18.8935L8.21948 20.297L7.53655 19.785L6.85362 19.2684L6.83899 14.9118L6.82923 10.5598H19.8536H32.878V15.017ZM36.0146 15.9221C36.439 16.2604 36.7804 16.5575 36.7756 16.5804C36.7658 16.6215 35.1414 17.8284 35.0975 17.8284C35.0829 17.8284 35.0731 17.2295 35.0731 16.4935C35.0731 15.2318 35.078 15.1678 35.1609 15.2318C35.2048 15.273 35.5902 15.5838 36.0146 15.9221ZM4.68289 16.5255C4.68289 17.1153 4.66826 17.5998 4.64875 17.5998C4.61948 17.5998 3.33655 16.6673 3.22923 16.5713C3.20972 16.553 4.59997 15.4513 4.64387 15.4513C4.66338 15.4513 4.68289 15.9358 4.68289 16.5255ZM16.2878 21.3347V24.1598L15.6341 24.649C15.2731 24.9187 14.9317 25.1518 14.8634 25.1655C14.7658 25.1884 14.3414 24.8867 12.117 23.2181C10.6731 22.1347 9.47313 21.2204 9.45362 21.193C9.40484 21.129 9.40484 18.5873 9.44874 18.5461C9.46338 18.5278 11.0146 18.5141 12.8878 18.5141H16.2926L16.2878 21.3347ZM7.95118 22.6924C10.7658 24.8044 13.0731 26.5415 13.0731 26.5598C13.0731 26.6055 2.81948 34.377 2.75606 34.377C2.74143 34.377 2.73167 30.8798 2.73167 26.601C2.73167 21.5038 2.74631 18.8295 2.78045 18.8433C2.80484 18.8478 5.13167 20.585 7.95118 22.6924ZM37.317 26.5644V34.2947L37.1365 34.1667C36.9463 34.0341 28.5951 27.8993 27.4195 27.0307C26.8829 26.633 26.7756 26.537 26.8341 26.4958C26.9317 26.4273 33.6292 21.4993 35.6585 20.009C36.5317 19.3644 37.2585 18.8387 37.2829 18.8387C37.3024 18.8341 37.317 22.313 37.317 26.5644ZM22.1609 25.7461C23.4 26.6558 26.2926 28.7815 28.5853 30.4684C30.878 32.1553 33.4536 34.0433 34.3073 34.6695C35.1561 35.2958 35.8536 35.8261 35.8536 35.8444C35.8536 35.8673 28.8048 35.8855 20.0975 35.8855C11.0878 35.8855 4.34143 35.8673 4.34143 35.8444C4.34143 35.8215 5.1024 35.2318 6.03411 34.5324C8.26338 32.8547 15.039 27.7164 18.2683 25.2478C19.1024 24.6124 19.8097 24.0913 19.8439 24.0913C19.878 24.0913 20.9219 24.8364 22.1609 25.7461Z" fill="#FAFAFA"/>
<path d="M8.40968 13.2707C8.39992 13.3027 8.39505 13.7507 8.39992 14.2627L8.41456 15.1998L19.5999 15.2135L30.7804 15.2227V14.2169V13.2112H19.6097C10.5902 13.2112 8.42919 13.2204 8.40968 13.2707Z" fill="#FAFAFA"/>
<path d="M19.1219 18.2625V19.0625H24.9268H30.7317V18.2625V17.4625H24.9268H19.1219V18.2625Z" fill="#FAFAFA"/>
<path d="M19.1561 20.0546C19.1366 20.0683 19.1219 20.2969 19.1219 20.5575V21.0283H23.9756H28.8293V20.5255V20.0226H24.0098C21.3561 20.0226 19.1707 20.0363 19.1561 20.0546Z" fill="#FAFAFA"/>
</svg>
