<svg width="84" height="60" viewBox="0 0 84 60" fill="none" xmlns="http://www.w3.org/2000/svg">
<path d="M75.6735 60H7.72783C3.45973 60 0 56.4655 0 52.1052V7.89478C0 3.53448 3.45973 -1.39782e-06 7.72783 -1.39782e-06H75.6735C79.9413 -1.39782e-06 83.4013 3.53448 83.4013 7.89478V52.1052C83.4013 56.4655 79.9413 60 75.6735 60Z" fill="#253B80"/>
<path d="M19.5025 22.049H14.9587C14.6479 22.049 14.3834 22.2799 14.335 22.5935L12.4972 34.4969C12.4607 34.7315 12.6389 34.9434 12.8719 34.9434H15.0412C15.352 34.9434 15.6166 34.7127 15.6649 34.3983L16.1607 31.1879C16.2085 30.8735 16.4736 30.6426 16.7839 30.6426H18.2222C21.2152 30.6426 22.9426 29.1631 23.3938 26.2309C23.5971 24.948 23.4024 23.9401 22.8143 23.2342C22.1686 22.4591 21.0233 22.049 19.5025 22.049ZM20.0267 26.3966C19.7782 28.062 18.5325 28.062 17.328 28.062H16.6424L17.1234 24.9514C17.1519 24.7633 17.3114 24.6249 17.4973 24.6249H17.8115C18.6321 24.6249 19.406 24.6249 19.8061 25.1028C20.0445 25.3879 20.1177 25.8114 20.0267 26.3966" fill="white"/>
<path d="M33.0843 26.343H30.9085C30.7231 26.343 30.563 26.4815 30.5343 26.6696L30.4381 27.2912L30.2861 27.0659C29.8149 26.3674 28.7645 26.1341 27.7162 26.1341C25.3118 26.1341 23.2583 27.9945 22.8582 30.6042C22.6503 31.9061 22.9459 33.151 23.6686 34.0192C24.3319 34.8173 25.2805 35.1499 26.4092 35.1499C28.3466 35.1499 29.4211 33.8773 29.4211 33.8773L29.3238 34.495C29.2874 34.7312 29.4656 34.943 29.6973 34.943H31.6571C31.9687 34.943 32.232 34.7121 32.2811 34.398L33.4569 26.7895C33.4942 26.5555 33.3168 26.343 33.0843 26.343ZM30.0515 30.6695C29.8415 31.9394 28.855 32.792 27.5967 32.792C26.9647 32.792 26.4599 32.5849 26.1356 32.1925C25.8139 31.8028 25.6919 31.2483 25.794 30.6306C25.99 29.3718 26.9934 28.4912 28.2323 28.4912C28.8504 28.4912 29.3525 28.701 29.6833 29.0967C30.0148 29.4964 30.1464 30.0544 30.0515 30.6695" fill="white"/>
<path d="M44.6723 26.3431H42.4859C42.2772 26.3431 42.0812 26.449 41.9631 26.626L38.9473 31.164L37.6691 26.8033C37.5887 26.5304 37.3422 26.3431 37.0632 26.3431H34.9146C34.6536 26.3431 34.4721 26.6036 34.5551 26.8548L36.9637 34.0749L34.6994 37.3401C34.5212 37.5974 34.7007 37.9512 35.0084 37.9512H37.192C37.3994 37.9512 37.5933 37.8479 37.711 37.6743L44.9832 26.9504C45.1572 26.6939 44.9785 26.3431 44.6723 26.3431Z" fill="white"/>
<path d="M51.9114 22.049H47.3671C47.0568 22.049 46.7922 22.2799 46.7439 22.5935L44.9061 34.4969C44.8696 34.7315 45.0478 34.9434 45.2795 34.9434H47.6115C47.8282 34.9434 48.0136 34.7819 48.0475 34.5619L48.5688 31.1879C48.6166 30.8735 48.8819 30.6426 49.192 30.6426H50.6298C53.6235 30.6426 55.3502 29.1631 55.8019 26.2309C56.006 24.948 55.81 23.9401 55.2219 23.2342C54.577 22.4591 53.4322 22.049 51.9114 22.049ZM52.4356 26.3966C52.1878 28.062 50.9422 28.062 49.7369 28.062H49.0518L49.5336 24.9514C49.5621 24.7633 49.7203 24.6249 49.907 24.6249H50.2212C51.041 24.6249 51.8157 24.6249 52.2157 25.1028C52.4542 25.3879 52.5266 25.8114 52.4356 26.3966" fill="white"/>
<path d="M65.4926 26.343H63.3181C63.1314 26.343 62.9726 26.4815 62.9447 26.6696L62.8485 27.2912L62.6957 27.0659C62.2245 26.3674 61.1749 26.1341 60.1265 26.1341C57.7221 26.1341 55.6691 27.9945 55.2691 30.6042C55.062 31.9061 55.3562 33.151 56.079 34.0192C56.7433 34.8173 57.6908 35.1499 58.8196 35.1499C60.757 35.1499 61.8312 33.8773 61.8312 33.8773L61.7342 34.495C61.6977 34.7312 61.8757 34.943 62.1089 34.943H64.0683C64.3783 34.943 64.6429 34.7121 64.6915 34.398L65.8681 26.7895C65.9038 26.5555 65.7259 26.343 65.4926 26.343ZM62.4598 30.6695C62.2511 31.9394 61.2633 32.792 60.005 32.792C59.3743 32.792 58.8682 32.5849 58.5439 32.1925C58.2222 31.8028 58.1015 31.2483 58.2023 30.6306C58.3996 29.3718 59.4017 28.4912 60.6406 28.4912C61.2586 28.4912 61.7608 28.701 62.0916 29.0967C62.4247 29.4964 62.556 30.0544 62.4598 30.6695" fill="white"/>
<path d="M68.0578 22.3756L66.1928 34.4969C66.1563 34.7315 66.3345 34.9434 66.5662 34.9434H68.441C68.7526 34.9434 69.0171 34.7127 69.065 34.3983L70.9039 22.4958C70.9406 22.261 70.7624 22.0486 70.5307 22.0486H68.4312C68.2458 22.0491 68.0865 22.1875 68.0578 22.3756Z" fill="white"/>
</svg>
