<svg width="40" height="40" viewBox="0 0 40 40" fill="none" xmlns="http://www.w3.org/2000/svg">
<path d="M2.96652 0.0683481C2.58166 0.145894 2.0514 0.403018 1.75207 0.664224C1.44418 0.92543 1.12346 1.38254 0.999448 1.73354C0.95241 1.87638 0.892542 2.158 0.871161 2.35798C0.81557 2.83958 0.81557 37.1637 0.871161 37.6453C0.922476 38.1269 1.05076 38.4738 1.30734 38.837C1.57674 39.2288 1.91884 39.5145 2.34646 39.7186C2.98362 40.0206 2.22673 40.0002 12.8232 40.0002C23.4198 40.0002 22.6629 40.0206 23.3 39.7186C23.7276 39.5145 24.0697 39.2288 24.3391 38.837C24.5957 38.4738 24.724 38.1269 24.7753 37.6453C24.8309 37.1637 24.8309 2.83958 24.7753 2.35798C24.724 1.88455 24.6 1.54171 24.352 1.17439C23.9714 0.623411 23.3257 0.198951 22.6586 0.0642668C22.2224 -0.0214414 3.39414 -0.0214414 2.96652 0.0683481ZM16.9797 2.68041C17.1936 2.83142 17.2919 3.011 17.2919 3.25588C17.2919 3.37832 17.262 3.52933 17.2278 3.59055C17.1422 3.74972 16.9327 3.90889 16.7446 3.96195C16.5265 4.01909 9.12002 4.01909 8.90193 3.96195C8.71378 3.90889 8.50424 3.74972 8.41872 3.59055C8.28616 3.35383 8.35458 2.94161 8.55128 2.7702C8.79075 2.56613 8.58977 2.57429 12.8746 2.58245C16.8429 2.5947 16.86 2.5947 16.9797 2.68041ZM23.2786 20.0016V32.8579H12.8232H2.36784V20.0016V7.1454H12.8232H23.2786V20.0016ZM13.4647 35.1434C13.7384 35.2699 14.0377 35.5556 14.1703 35.8168C14.2643 35.9923 14.2772 36.078 14.2772 36.429C14.2772 36.9106 14.1916 37.1269 13.8709 37.429C13.5545 37.7351 13.3278 37.8167 12.8232 37.8167C12.4555 37.8167 12.3657 37.8044 12.1818 37.7146C11.9081 37.5881 11.6088 37.3024 11.4762 37.0412C11.3394 36.7759 11.3052 36.2617 11.4078 35.9719C11.5446 35.5883 11.9124 35.2291 12.3229 35.0822C12.5838 34.9842 13.2038 35.0169 13.4647 35.1434Z" fill="#FAFAFA"/>
<path d="M34.19 7.39446C33.8522 7.55363 33.6897 8.01482 33.8607 8.32909C33.8949 8.39439 34.1216 8.64743 34.3568 8.88823C36.311 10.8718 37.6537 13.4267 38.1583 16.1245C38.4491 17.6876 38.4491 19.6222 38.1583 21.1853C37.658 23.8586 36.2554 26.536 34.3739 28.4052C33.8864 28.8909 33.7966 29.0256 33.7966 29.2786C33.7966 29.8133 34.3354 30.1439 34.8443 29.9235C35.1094 29.8092 35.9646 28.9072 36.6873 27.9808C38.3294 25.8707 39.3813 23.3403 39.7705 20.5731C39.8817 19.7813 39.8817 17.5284 39.7705 16.7367C39.2958 13.3369 37.8889 10.4555 35.4857 7.94544C34.8699 7.30467 34.6133 7.19447 34.19 7.39446Z" fill="#FAFAFA"/>
<path d="M31.4147 10.0881C31.2094 10.1452 30.9956 10.3697 30.94 10.586C30.9101 10.688 30.8972 10.7982 30.9058 10.8268C30.9144 10.8554 30.9357 10.9329 30.9486 10.9941C30.9657 11.0554 31.1324 11.2676 31.3249 11.4635C32.89 13.0715 33.8521 14.9612 34.2113 17.1447C34.3182 17.81 34.3182 19.4956 34.2113 20.1649C33.8607 22.2995 32.9327 24.1483 31.4018 25.7564C30.9229 26.2624 30.8545 26.4012 30.9357 26.7114C31.0341 27.091 31.4446 27.3236 31.8295 27.2256C32.0561 27.1685 32.4367 26.8338 32.9541 26.2339C34.3866 24.585 35.336 22.5647 35.6781 20.4261C35.7978 19.6996 35.8406 18.3038 35.7679 17.5651C35.507 14.9041 34.3054 12.3695 32.4196 10.5085C31.9663 10.0595 31.7867 9.98604 31.4147 10.0881Z" fill="#FAFAFA"/>
<path d="M28.3956 12.9119C28.1989 13.0262 28.0792 13.1895 28.045 13.3935C27.9979 13.6629 28.0835 13.8343 28.4555 14.2261C29.3022 15.124 29.8538 16.1525 30.1275 17.3606C30.2088 17.7198 30.2216 17.8994 30.2216 18.6544C30.2216 19.4094 30.2088 19.589 30.1275 19.9482C29.8538 21.1563 29.3022 22.1848 28.4555 23.0827C28.0835 23.4745 27.9937 23.654 28.045 23.9153C28.1134 24.2662 28.4042 24.4907 28.789 24.4907C29.0798 24.4907 29.1996 24.4254 29.5203 24.0948C30.9571 22.6092 31.7439 20.6828 31.7439 18.6544C31.7439 16.7321 31.064 14.9608 29.7598 13.4833C29.268 12.9283 29.1525 12.8466 28.8233 12.8262C28.6009 12.8181 28.5325 12.8303 28.3956 12.9119Z" fill="#FAFAFA"/>
</svg>
