<svg width="71" height="53" viewBox="0 0 71 53" fill="none" xmlns="http://www.w3.org/2000/svg">
<mask id="path-1-inside-1" fill="white">
<rect x="15.9819" y="4.0105" width="38.2176" height="48.6257" rx="1"/>
</mask>
<rect x="15.9819" y="4.0105" width="38.2176" height="48.6257" rx="1" stroke="#024284" stroke-width="4" mask="url(#path-1-inside-1)"/>
<line x1="15.9819" y1="23.5637" x2="54.1996" y2="23.5637" stroke="#024284" stroke-width="2"/>
<line x1="15.9819" y1="27.574" x2="54.1996" y2="27.574" stroke="#024284" stroke-width="2"/>
<line x1="15.9819" y1="35.5947" x2="54.1996" y2="35.5947" stroke="#024284" stroke-width="2"/>
<line x1="15.9819" y1="31.5842" x2="54.1996" y2="31.5842" stroke="#024284" stroke-width="2"/>
<line x1="15.9819" y1="11.5325" x2="54.1996" y2="11.5325" stroke="#024284" stroke-width="2"/>
<line x1="15.9819" y1="7.52197" x2="54.1996" y2="7.52197" stroke="#024284" stroke-width="2"/>
<line x1="15.9819" y1="19.5532" x2="54.1996" y2="19.5532" stroke="#024284" stroke-width="2"/>
<line x1="15.9819" y1="15.5427" x2="54.1996" y2="15.5427" stroke="#024284" stroke-width="2"/>
<line x1="15.9819" y1="43.6157" x2="54.1996" y2="43.6157" stroke="#024284" stroke-width="2"/>
<line x1="15.9819" y1="39.6052" x2="54.1996" y2="39.6052" stroke="#024284" stroke-width="2"/>
<line x1="15.9819" y1="47.6257" x2="54.1996" y2="47.6257" stroke="#024284" stroke-width="2"/>
<mask id="path-13-inside-2" fill="white">
<rect width="13.8973" height="52.636" rx="1"/>
</mask>
<rect width="13.8973" height="52.636" rx="1" fill="#FAFAFA" stroke="#024284" stroke-width="4" mask="url(#path-13-inside-2)"/>
<mask id="path-14-inside-3" fill="white">
<rect x="56.2841" width="13.8973" height="52.636" rx="1"/>
</mask>
<rect x="56.2841" width="13.8973" height="52.636" rx="1" fill="#FAFAFA" stroke="#024284" stroke-width="4" mask="url(#path-14-inside-3)"/>
</svg>
