<svg width="72" height="53" viewBox="0 0 72 53" fill="none" xmlns="http://www.w3.org/2000/svg">
<mask id="path-1-inside-1" fill="white">
<rect x="0.949829" y="0.213379" width="14.0141" height="52.6361" rx="1"/>
</mask>
<rect x="0.949829" y="0.213379" width="14.0141" height="52.6361" rx="1" fill="#FAFAFA" stroke="#024284" stroke-width="4" mask="url(#path-1-inside-1)"/>
<rect x="8.43719" y="12.7432" width="61.6941" height="8.02592" fill="#FAFAFA" stroke="#024284" stroke-width="2"/>
<line y1="-1" x2="12.9506" y2="-1" transform="matrix(0.702529 -0.711655 0.814138 0.580671 9.14111 21.7197)" stroke="#024284" stroke-width="2"/>
<line y1="-1" x2="12.9506" y2="-1" transform="matrix(0.702529 -0.711655 0.814138 0.580671 15.0482 21.7275)" stroke="#024284" stroke-width="2"/>
<line y1="-1" x2="12.9506" y2="-1" transform="matrix(0.702529 -0.711655 0.814138 0.580671 20.9459 21.7275)" stroke="#024284" stroke-width="2"/>
<line y1="-1" x2="12.9506" y2="-1" transform="matrix(0.702529 -0.711655 0.814138 0.580671 26.8434 21.7275)" stroke="#024284" stroke-width="2"/>
<line y1="-1" x2="12.9506" y2="-1" transform="matrix(0.702529 -0.711655 0.814138 0.580671 32.7411 21.7275)" stroke="#024284" stroke-width="2"/>
<line y1="-1" x2="12.9506" y2="-1" transform="matrix(0.702529 -0.711655 0.814138 0.580671 38.6387 21.7275)" stroke="#024284" stroke-width="2"/>
<line y1="-1" x2="12.9506" y2="-1" transform="matrix(0.702529 -0.711655 0.814138 0.580671 44.5363 21.7275)" stroke="#024284" stroke-width="2"/>
<line y1="-1" x2="12.9506" y2="-1" transform="matrix(0.702529 -0.711655 0.814138 0.580671 50.4339 21.7275)" stroke="#024284" stroke-width="2"/>
<line y1="-1" x2="12.9506" y2="-1" transform="matrix(0.702529 -0.711655 0.814138 0.580671 56.3315 21.7275)" stroke="#024284" stroke-width="2"/>
<line y1="-1" x2="12.411" y2="-1" transform="matrix(0.702529 -0.711655 0.814138 0.580671 62.229 21.7275)" stroke="#024284" stroke-width="2"/>
</svg>
