<svg width="261" height="260" viewBox="0 0 261 260" fill="none" xmlns="http://www.w3.org/2000/svg">
<g clip-path="url(#clip0)">
<path d="M260.984 0H0.987549V260H260.984V0Z" fill="#024284"/>
<path d="M132.63 196.756L133.28 197.131" stroke="#FAFAFA" stroke-opacity="0.75" stroke-width="2.5" stroke-linecap="round" stroke-linejoin="round" stroke-dasharray="2.16 2.16"/>
<path d="M133.311 90.0595V88.3584" stroke="#FAFAFA" stroke-opacity="0.75" stroke-width="2.5" stroke-linecap="round" stroke-linejoin="round" stroke-dasharray="4.91 4.91"/>
<path d="M128.662 90.0595V88.3584" stroke="#FAFAFA" stroke-opacity="0.75" stroke-width="2.5" stroke-linecap="round" stroke-linejoin="round" stroke-dasharray="4.91 4.91"/>
<path d="M130.987 86.896L130.936 86.8963L130.884 86.8974L130.831 86.8991L130.779 86.9015L130.726 86.9047L130.672 86.9085L130.618 86.913L130.565 86.9185L130.511 86.9248L130.457 86.9317L130.402 86.9393L130.348 86.948L130.294 86.9574L130.24 86.9674L130.186 86.9785L130.132 86.9903L130.079 87.0028L130.025 87.0163L129.973 87.0305L129.92 87.0458L129.868 87.0617L129.843 87.07L129.817 87.0787L129.792 87.0874L129.766 87.0964L129.741 87.1054L129.716 87.1147L129.691 87.1241L129.666 87.1338L129.642 87.1439L129.618 87.1539L129.594 87.1643L129.57 87.1747L129.546 87.1855L129.523 87.1962L129.499 87.2073L129.476 87.2184L129.454 87.2298L129.431 87.2413L129.409 87.2531L129.387 87.2648L129.366 87.277L129.344 87.2891L129.323 87.3016L129.302 87.3141L129.282 87.3266L129.262 87.3394L129.241 87.3522L129.222 87.3654C129.202 87.3786 129.183 87.3921 129.183 87.3921C129.164 87.4056 129.146 87.4191 129.146 87.4191C129.128 87.433 129.11 87.4468 129.11 87.4468C129.093 87.4607 129.075 87.4749 129.075 87.4749C129.059 87.4891 129.042 87.5034 129.042 87.5034C129.026 87.5179 129.01 87.5321 129.01 87.5321C128.995 87.5467 128.98 87.5616 128.98 87.5616C128.965 87.5765 128.951 87.5914 128.951 87.5914C128.936 87.6063 128.923 87.6216 128.923 87.6216C128.91 87.6368 128.896 87.6517 128.896 87.6517C128.884 87.667 128.872 87.6822 128.872 87.6822C128.86 87.6975 128.848 87.7131 128.848 87.7131C128.837 87.7283 128.826 87.7439 128.826 87.7439C128.816 87.7595 128.806 87.7751 128.806 87.7751C128.796 87.7907 128.791 87.7984 128.791 87.7984C128.782 87.814 128.778 87.8219 128.778 87.8219C128.769 87.8375 128.765 87.8455 128.765 87.8455C128.757 87.8611 128.753 87.8691 128.753 87.8691C128.745 87.8847 128.742 87.8927 128.742 87.8927C128.735 87.9083 128.731 87.9162 128.731 87.9162C128.725 87.9318 128.722 87.9398 128.722 87.9398C128.716 87.9554 128.713 87.9634 128.713 87.9634C128.707 87.979 128.705 87.9869 128.705 87.9869C128.7 88.0025 128.698 88.0102 128.698 88.0102C128.693 88.0258 128.691 88.0334 128.691 88.0334C128.687 88.049 128.685 88.0566 128.685 88.0566C128.682 88.0719 128.68 88.0799 128.68 88.0799C128.677 88.0951 128.675 88.1031 128.675 88.1031C128.673 88.1183 128.672 88.126 128.672 88.126C128.669 88.1412 128.668 88.1488 128.668 88.1488C128.667 88.1641 128.666 88.1717 128.666 88.1717C128.665 88.187 128.664 88.1943 128.664 88.1943C128.664 88.2092 128.663 88.2168 128.663 88.2168C128.663 88.2317 128.663 88.239 128.663 88.239C128.663 88.2539 128.663 88.2612 128.663 88.2612C128.664 88.2761 128.664 88.2837 128.664 88.2837C128.665 88.2986 128.666 88.3062 128.666 88.3062C128.667 88.3215 128.668 88.3291 128.668 88.3291C128.67 88.3444 128.672 88.352 128.672 88.352C128.674 88.3672 128.675 88.3749 128.675 88.3749C128.678 88.3901 128.68 88.3981 128.68 88.3981C128.683 88.4133 128.685 88.4213 128.685 88.4213C128.689 88.4369 128.691 88.4445 128.691 88.4445C128.695 88.4601 128.698 88.4678 128.698 88.4678C128.702 88.4834 128.705 88.491 128.705 88.491C128.71 88.5066 128.713 88.5146 128.713 88.5146C128.719 88.5302 128.722 88.5381 128.722 88.5381C128.728 88.5537 128.731 88.5617 128.731 88.5617C128.738 88.5773 128.742 88.5853 128.742 88.5853C128.749 88.6009 128.753 88.6089 128.753 88.6089C128.761 88.6245 128.765 88.6324 128.765 88.6324C128.773 88.648 128.778 88.656 128.778 88.656C128.787 88.6716 128.791 88.6796 128.791 88.6796C128.796 88.6876 128.806 88.7032 128.806 88.7032C128.816 88.7188 128.826 88.734 128.826 88.734C128.837 88.7496 128.848 88.7649 128.848 88.7649C128.86 88.7801 128.872 88.7957 128.872 88.7957C128.884 88.811 128.896 88.8262 128.896 88.8262C128.909 88.8415 128.923 88.8564 128.923 88.8564C128.937 88.8713 128.951 88.8865 128.951 88.8865C128.965 88.9014 128.98 88.9163 128.98 88.9163C128.995 88.9309 129.01 88.9458 129.01 88.9458C129.026 88.9604 129.042 88.9749 129.042 88.9749C129.059 88.9892 129.075 89.0034 129.075 89.0034C129.093 89.0176 129.11 89.0314 129.11 89.0314C129.128 89.0453 129.146 89.0592 129.146 89.0592C129.164 89.0727 129.183 89.0862 129.183 89.0862C129.202 89.0997 129.222 89.1129 129.222 89.1129L129.241 89.1261L129.262 89.1389L129.282 89.1517L129.302 89.1642L129.323 89.1767L129.344 89.1892L129.366 89.2013L129.387 89.2134L129.409 89.2252L129.431 89.237L129.454 89.2485L129.476 89.2599L129.499 89.271L129.523 89.2821L129.546 89.2928L129.57 89.3036L129.594 89.314L129.618 89.3244L129.642 89.3344L129.666 89.3441L129.691 89.3538L129.716 89.3632L129.741 89.3726L129.766 89.3816L129.792 89.3906L129.817 89.3993L129.843 89.4079L129.868 89.4162L129.92 89.4322L129.973 89.4474L130.025 89.4617L130.079 89.4752L130.132 89.488L130.186 89.4998L130.24 89.5109L130.294 89.5209L130.348 89.5303L130.402 89.539L130.457 89.5466L130.511 89.5535L130.565 89.5598L130.618 89.5653L130.672 89.5698L130.726 89.5736L130.779 89.5767L130.831 89.5792L130.884 89.5809L130.936 89.5819L130.987 89.5823L131.039 89.5819L131.091 89.5809L131.143 89.5792L131.196 89.5767L131.249 89.5736L131.302 89.5698L131.356 89.5653L131.41 89.5598L131.464 89.5535L131.518 89.5466L131.572 89.539L131.626 89.5303L131.68 89.5209L131.734 89.5109L131.788 89.4998L131.842 89.488L131.896 89.4752L131.949 89.4617L132.002 89.4474L132.054 89.4322L132.106 89.4162L132.132 89.4079L132.158 89.3993L132.183 89.3906L132.208 89.3816L132.234 89.3726L132.259 89.3632L132.284 89.3538L132.308 89.3441L132.333 89.3344L132.357 89.3244L132.381 89.314L132.405 89.3036L132.428 89.2928L132.452 89.2821L132.475 89.271L132.498 89.2599L132.521 89.2485L132.543 89.237L132.565 89.2252L132.587 89.2134L132.609 89.2013L132.63 89.1892L132.651 89.1767L132.672 89.1642L132.693 89.1517L132.713 89.1389L132.733 89.1261L132.753 89.1129C132.772 89.0997 132.791 89.0862 132.791 89.0862C132.81 89.0727 132.828 89.0592 132.828 89.0592C132.847 89.0453 132.865 89.0314 132.865 89.0314C132.882 89.0176 132.899 89.0034 132.899 89.0034C132.916 88.9892 132.932 88.9749 132.932 88.9749C132.948 88.9604 132.964 88.9458 132.964 88.9458C132.98 88.9313 132.995 88.9163 132.995 88.9163C133.009 88.9014 133.024 88.8865 133.024 88.8865C133.038 88.8716 133.052 88.8564 133.052 88.8564C133.065 88.8411 133.078 88.8262 133.078 88.8262C133.091 88.811 133.103 88.7957 133.103 88.7957C133.115 88.7805 133.126 88.7649 133.126 88.7649C133.137 88.7496 133.148 88.734 133.148 88.734C133.159 88.7184 133.169 88.7032 133.169 88.7032C133.178 88.6876 133.183 88.6796 133.183 88.6796C133.192 88.664 133.197 88.656 133.197 88.656C133.205 88.6404 133.209 88.6324 133.209 88.6324C133.217 88.6168 133.222 88.6089 133.222 88.6089C133.229 88.5933 133.233 88.5853 133.233 88.5853C133.24 88.5697 133.243 88.5617 133.243 88.5617C133.25 88.5461 133.253 88.5381 133.253 88.5381C133.259 88.5225 133.262 88.5146 133.262 88.5146C133.267 88.499 133.27 88.491 133.27 88.491C133.275 88.4754 133.277 88.4678 133.277 88.4678C133.282 88.4522 133.284 88.4445 133.284 88.4445C133.287 88.4289 133.29 88.4213 133.29 88.4213C133.293 88.4057 133.295 88.3981 133.295 88.3981C133.298 88.3828 133.299 88.3749 133.299 88.3749C133.302 88.3596 133.303 88.352 133.303 88.352C133.305 88.3367 133.306 88.3291 133.306 88.3291C133.308 88.3139 133.309 88.3062 133.309 88.3062C133.31 88.2913 133.31 88.2837 133.31 88.2837C133.311 88.2688 133.311 88.2612 133.311 88.2612C133.312 88.2463 133.312 88.239 133.312 88.239C133.312 88.2241 133.311 88.2168 133.311 88.2168C133.311 88.2019 133.31 88.1943 133.31 88.1943C133.309 88.1793 133.309 88.1717 133.309 88.1717C133.307 88.1565 133.306 88.1488 133.306 88.1488C133.304 88.1336 133.303 88.126 133.303 88.126C133.301 88.1107 133.299 88.1031 133.299 88.1031C133.296 88.0878 133.295 88.0799 133.295 88.0799C133.291 88.0643 133.29 88.0566 133.29 88.0566C133.286 88.041 133.284 88.0334 133.284 88.0334C133.28 88.0178 133.277 88.0102 133.277 88.0102C133.272 87.9946 133.27 87.9869 133.27 87.9869C133.265 87.9713 133.262 87.9634 133.262 87.9634C133.256 87.9478 133.253 87.9398 133.253 87.9398C133.247 87.9242 133.243 87.9162 133.243 87.9162C133.236 87.9006 133.233 87.8927 133.233 87.8927C133.225 87.8771 133.222 87.8691 133.222 87.8691C133.214 87.8535 133.209 87.8455 133.209 87.8455C133.201 87.8299 133.197 87.8219 133.197 87.8219C133.188 87.8063 133.183 87.7984 133.183 87.7984C133.178 87.7907 133.169 87.7751 133.169 87.7751C133.159 87.7595 133.148 87.7439 133.148 87.7439C133.137 87.7283 133.126 87.7131 133.126 87.7131C133.115 87.6978 133.103 87.6822 133.103 87.6822C133.091 87.667 133.078 87.6517 133.078 87.6517C133.065 87.6365 133.052 87.6216 133.052 87.6216C133.038 87.6067 133.024 87.5914 133.024 87.5914C133.009 87.5765 132.995 87.5616 132.995 87.5616C132.98 87.547 132.964 87.5321 132.964 87.5321C132.948 87.5176 132.932 87.5034 132.932 87.5034C132.916 87.4891 132.899 87.4749 132.899 87.4749C132.882 87.4607 132.865 87.4468 132.865 87.4468C132.847 87.433 132.828 87.4191 132.828 87.4191C132.81 87.4056 132.791 87.3921 132.791 87.3921C132.772 87.3786 132.753 87.3654 132.753 87.3654L132.733 87.3522L132.713 87.3394L132.693 87.3266L132.672 87.3141L132.651 87.3016L132.63 87.2891L132.609 87.277L132.587 87.2648L132.565 87.2531L132.543 87.2413L132.521 87.2298L132.498 87.2184L132.475 87.2073L132.452 87.1962L132.428 87.1855L132.405 87.1747L132.381 87.1643L132.357 87.1539L132.333 87.1439L132.308 87.1338L132.284 87.1241L132.259 87.1147L132.234 87.1054L132.208 87.0964L132.183 87.0874L132.158 87.0787L132.132 87.07L132.106 87.0617L132.054 87.0458L132.002 87.0305L131.949 87.0163L131.896 87.0028L131.842 86.9903L131.788 86.9785L131.734 86.9674L131.68 86.9574L131.626 86.948L131.572 86.9393L131.518 86.9317L131.464 86.9248L131.41 86.9185L131.356 86.913L131.302 86.9085L131.249 86.9047L131.196 86.9015L131.143 86.8991L131.091 86.8974L131.039 86.8963L130.987 86.896Z" stroke="#FAFAFA" stroke-opacity="0.75" stroke-width="2.5" stroke-linecap="round" stroke-linejoin="round" stroke-dasharray="5.64 5.64"/>
<path d="M129.343 195.489L129.39 195.514L129.438 195.537L129.485 195.56L129.534 195.583L129.582 195.604L129.631 195.625L129.681 195.645L129.731 195.664L129.781 195.683L129.831 195.701L129.882 195.718L129.933 195.734L129.985 195.749L130.036 195.764L130.088 195.777L130.14 195.791L130.152 195.793" stroke="#FAFAFA" stroke-opacity="0.75" stroke-width="2.5" stroke-linecap="round" stroke-linejoin="round"/>
<path d="M131.821 195.793L131.833 195.791L131.886 195.777L131.937 195.764L131.989 195.749L132.04 195.734L132.092 195.718L132.142 195.701L132.193 195.683L132.243 195.664L132.293 195.645L132.342 195.625L132.391 195.604L132.44 195.583L132.488 195.56L132.536 195.537L132.583 195.514L132.63 195.489" stroke="#FAFAFA" stroke-opacity="0.75" stroke-width="2.5" stroke-linecap="round" stroke-linejoin="round"/>
<path d="M172.632 62.9282L171.882 63.3616" stroke="#FAFAFA" stroke-opacity="0.75" stroke-width="2.5" stroke-linecap="round" stroke-linejoin="round"/>
<path d="M170.376 64.2314L137.97 82.9404" stroke="#FAFAFA" stroke-opacity="0.75" stroke-width="2.5" stroke-linecap="round" stroke-linejoin="round" stroke-dasharray="5.02 5.02"/>
<path d="M137.217 83.376L136.466 83.8093" stroke="#FAFAFA" stroke-opacity="0.75" stroke-width="2.5" stroke-linecap="round" stroke-linejoin="round"/>
<path d="M174.824 64.1936L174.073 63.7603" stroke="#FAFAFA" stroke-opacity="0.75" stroke-width="2.5" stroke-linecap="round" stroke-linejoin="round"/>
<path d="M173.382 63.3616L172.632 62.9282" stroke="#FAFAFA" stroke-opacity="0.75" stroke-width="2.5" stroke-linecap="round" stroke-linejoin="round"/>
<path d="M134.822 87.2888L135.573 86.8555" stroke="#FAFAFA" stroke-opacity="0.75" stroke-width="2.5" stroke-linecap="round" stroke-linejoin="round"/>
<path d="M137.113 85.9661L173.305 65.0708" stroke="#FAFAFA" stroke-opacity="0.75" stroke-width="2.5" stroke-linecap="round" stroke-linejoin="round" stroke-dasharray="5.13 5.13"/>
<path d="M174.074 64.6267L174.824 64.1934" stroke="#FAFAFA" stroke-opacity="0.75" stroke-width="2.5" stroke-linecap="round" stroke-linejoin="round"/>
<path d="M174.824 112.282V111.416" stroke="#FAFAFA" stroke-opacity="0.75" stroke-width="2.5" stroke-linecap="round" stroke-linejoin="round"/>
<path d="M174.824 109.698V65.918" stroke="#FAFAFA" stroke-opacity="0.75" stroke-width="2.5" stroke-linecap="round" stroke-linejoin="round" stroke-dasharray="4.95 4.95"/>
<path d="M174.824 65.06V64.1934" stroke="#FAFAFA" stroke-opacity="0.75" stroke-width="2.5" stroke-linecap="round" stroke-linejoin="round"/>
<path d="M132.63 86.0234L133.381 86.4568" stroke="#FAFAFA" stroke-opacity="0.75" stroke-width="2.5" stroke-linecap="round" stroke-linejoin="round"/>
<path d="M134.072 86.8555L134.822 87.2888" stroke="#FAFAFA" stroke-opacity="0.75" stroke-width="2.5" stroke-linecap="round" stroke-linejoin="round"/>
<path d="M134.822 89.188V88.3213" stroke="#FAFAFA" stroke-opacity="0.75" stroke-width="2.5" stroke-linecap="round" stroke-linejoin="round"/>
<path d="M134.822 88.1562V87.2896" stroke="#FAFAFA" stroke-opacity="0.75" stroke-width="2.5" stroke-linecap="round" stroke-linejoin="round"/>
<path d="M136.466 83.8091L135.716 84.2424" stroke="#FAFAFA" stroke-opacity="0.75" stroke-width="2.5" stroke-linecap="round" stroke-linejoin="round"/>
<path d="M134.937 84.6919L133.77 85.3658" stroke="#FAFAFA" stroke-opacity="0.75" stroke-width="2.5" stroke-linecap="round" stroke-linejoin="round" stroke-dasharray="2.59 2.59"/>
<path d="M133.381 85.5903L132.63 86.0237" stroke="#FAFAFA" stroke-opacity="0.75" stroke-width="2.5" stroke-linecap="round" stroke-linejoin="round"/>
<path d="M132.63 87.2891V86.0234" stroke="#FAFAFA" stroke-opacity="0.75" stroke-width="2.5" stroke-linecap="round" stroke-linejoin="round" stroke-dasharray="3.65 3.65"/>
<path d="M127.151 89.187L126.401 89.6203" stroke="#FAFAFA" stroke-opacity="0.75" stroke-width="2.5" stroke-linecap="round" stroke-linejoin="round"/>
<path d="M124.893 90.4902L92.488 109.199" stroke="#FAFAFA" stroke-opacity="0.75" stroke-width="2.5" stroke-linecap="round" stroke-linejoin="round" stroke-dasharray="5.02 5.02"/>
<path d="M91.7344 109.635L90.9839 110.068" stroke="#FAFAFA" stroke-opacity="0.75" stroke-width="2.5" stroke-linecap="round" stroke-linejoin="round"/>
<path d="M129.343 90.4524L128.593 90.019" stroke="#FAFAFA" stroke-opacity="0.75" stroke-width="2.5" stroke-linecap="round" stroke-linejoin="round"/>
<path d="M127.902 89.6203L127.151 89.187" stroke="#FAFAFA" stroke-opacity="0.75" stroke-width="2.5" stroke-linecap="round" stroke-linejoin="round"/>
<path d="M89.34 113.549L90.0905 113.115" stroke="#FAFAFA" stroke-opacity="0.75" stroke-width="2.5" stroke-linecap="round" stroke-linejoin="round"/>
<path d="M91.6305 112.226L127.823 91.3306" stroke="#FAFAFA" stroke-opacity="0.75" stroke-width="2.5" stroke-linecap="round" stroke-linejoin="round" stroke-dasharray="5.13 5.13"/>
<path d="M128.593 90.8865L129.343 90.4531" stroke="#FAFAFA" stroke-opacity="0.75" stroke-width="2.5" stroke-linecap="round" stroke-linejoin="round"/>
<path d="M129.343 196.755V195.889" stroke="#FAFAFA" stroke-opacity="0.75" stroke-width="2.5" stroke-linecap="round" stroke-linejoin="round"/>
<path d="M129.343 194.174V92.1763" stroke="#FAFAFA" stroke-opacity="0.75" stroke-width="2.5" stroke-linecap="round" stroke-linejoin="round" stroke-dasharray="4.94 4.94"/>
<path d="M129.343 91.3198V90.4531" stroke="#FAFAFA" stroke-opacity="0.75" stroke-width="2.5" stroke-linecap="round" stroke-linejoin="round"/>
<path d="M89.34 219.851L90.0905 219.418" stroke="#FAFAFA" stroke-opacity="0.75" stroke-width="2.5" stroke-linecap="round" stroke-linejoin="round"/>
<path d="M91.6305 218.529L127.823 197.634" stroke="#FAFAFA" stroke-opacity="0.75" stroke-width="2.5" stroke-linecap="round" stroke-linejoin="round" stroke-dasharray="5.13 5.13"/>
<path d="M128.593 197.189L129.343 196.756" stroke="#FAFAFA" stroke-opacity="0.75" stroke-width="2.5" stroke-linecap="round" stroke-linejoin="round"/>
<path d="M87.1479 112.283L87.8985 112.716" stroke="#FAFAFA" stroke-opacity="0.75" stroke-width="2.5" stroke-linecap="round" stroke-linejoin="round"/>
<path d="M88.5894 113.115L89.3399 113.548" stroke="#FAFAFA" stroke-opacity="0.75" stroke-width="2.5" stroke-linecap="round" stroke-linejoin="round"/>
<path d="M89.34 219.851V218.984" stroke="#FAFAFA" stroke-opacity="0.75" stroke-width="2.5" stroke-linecap="round" stroke-linejoin="round"/>
<path d="M89.34 217.269V115.271" stroke="#FAFAFA" stroke-opacity="0.75" stroke-width="2.5" stroke-linecap="round" stroke-linejoin="round" stroke-dasharray="4.94 4.94"/>
<path d="M89.34 114.414V113.548" stroke="#FAFAFA" stroke-opacity="0.75" stroke-width="2.5" stroke-linecap="round" stroke-linejoin="round"/>
<path d="M87.1479 218.585L87.8985 219.018" stroke="#FAFAFA" stroke-opacity="0.75" stroke-width="2.5" stroke-linecap="round" stroke-linejoin="round"/>
<path d="M88.5894 219.417L89.3399 219.85" stroke="#FAFAFA" stroke-opacity="0.75" stroke-width="2.5" stroke-linecap="round" stroke-linejoin="round"/>
<path d="M90.984 110.068L90.2334 110.502" stroke="#FAFAFA" stroke-opacity="0.75" stroke-width="2.5" stroke-linecap="round" stroke-linejoin="round"/>
<path d="M89.4551 110.951L88.2878 111.625" stroke="#FAFAFA" stroke-opacity="0.75" stroke-width="2.5" stroke-linecap="round" stroke-linejoin="round" stroke-dasharray="2.59 2.59"/>
<path d="M87.8985 111.85L87.1479 112.283" stroke="#FAFAFA" stroke-opacity="0.75" stroke-width="2.5" stroke-linecap="round" stroke-linejoin="round"/>
<path d="M87.1479 218.585V217.719" stroke="#FAFAFA" stroke-opacity="0.75" stroke-width="2.5" stroke-linecap="round" stroke-linejoin="round"/>
<path d="M87.1479 216.004V114.006" stroke="#FAFAFA" stroke-opacity="0.75" stroke-width="2.5" stroke-linecap="round" stroke-linejoin="round" stroke-dasharray="4.94 4.94"/>
<path d="M87.1479 113.149V112.283" stroke="#FAFAFA" stroke-opacity="0.75" stroke-width="2.5" stroke-linecap="round" stroke-linejoin="round"/>
<path d="M174.824 112.282L174.074 111.849" stroke="#FAFAFA" stroke-opacity="0.75" stroke-width="2.5" stroke-linecap="round" stroke-linejoin="round"/>
<path d="M172.535 110.96L136.343 90.0649" stroke="#FAFAFA" stroke-opacity="0.75" stroke-width="2.5" stroke-linecap="round" stroke-linejoin="round" stroke-dasharray="5.13 5.13"/>
<path d="M135.573 89.6203L134.822 89.187" stroke="#FAFAFA" stroke-opacity="0.75" stroke-width="2.5" stroke-linecap="round" stroke-linejoin="round"/>
<path d="M172.632 113.548L173.382 113.115" stroke="#FAFAFA" stroke-opacity="0.75" stroke-width="2.5" stroke-linecap="round" stroke-linejoin="round"/>
<path d="M174.073 112.716L174.824 112.283" stroke="#FAFAFA" stroke-opacity="0.75" stroke-width="2.5" stroke-linecap="round" stroke-linejoin="round"/>
<path d="M132.63 90.4531L133.381 90.8865" stroke="#FAFAFA" stroke-opacity="0.75" stroke-width="2.5" stroke-linecap="round" stroke-linejoin="round"/>
<path d="M134.921 91.7759L171.113 112.671" stroke="#FAFAFA" stroke-opacity="0.75" stroke-width="2.5" stroke-linecap="round" stroke-linejoin="round" stroke-dasharray="5.13 5.13"/>
<path d="M171.882 113.115L172.632 113.549" stroke="#FAFAFA" stroke-opacity="0.75" stroke-width="2.5" stroke-linecap="round" stroke-linejoin="round"/>
<path d="M134.822 89.187L134.072 89.6203" stroke="#FAFAFA" stroke-opacity="0.75" stroke-width="2.5" stroke-linecap="round" stroke-linejoin="round"/>
<path d="M133.381 90.019L132.63 90.4524" stroke="#FAFAFA" stroke-opacity="0.75" stroke-width="2.5" stroke-linecap="round" stroke-linejoin="round"/>
<path d="M132.63 196.755V195.889" stroke="#FAFAFA" stroke-opacity="0.75" stroke-width="2.5" stroke-linecap="round" stroke-linejoin="round"/>
<path d="M132.63 194.174V92.1763" stroke="#FAFAFA" stroke-opacity="0.75" stroke-width="2.5" stroke-linecap="round" stroke-linejoin="round" stroke-dasharray="4.94 4.94"/>
<path d="M132.63 91.3198V90.4531" stroke="#FAFAFA" stroke-opacity="0.75" stroke-width="2.5" stroke-linecap="round" stroke-linejoin="round"/>
<path d="M129.343 86.0237L128.593 85.5903" stroke="#FAFAFA" stroke-opacity="0.75" stroke-width="2.5" stroke-linecap="round" stroke-linejoin="round"/>
<path d="M127.085 84.7196L94.6801 66.0107" stroke="#FAFAFA" stroke-opacity="0.75" stroke-width="2.5" stroke-linecap="round" stroke-linejoin="round" stroke-dasharray="5.02 5.02"/>
<path d="M93.9264 65.5759L93.1759 65.1426" stroke="#FAFAFA" stroke-opacity="0.75" stroke-width="2.5" stroke-linecap="round" stroke-linejoin="round"/>
<path d="M127.151 87.2888L127.902 86.8555" stroke="#FAFAFA" stroke-opacity="0.75" stroke-width="2.5" stroke-linecap="round" stroke-linejoin="round"/>
<path d="M128.593 86.4568L129.343 86.0234" stroke="#FAFAFA" stroke-opacity="0.75" stroke-width="2.5" stroke-linecap="round" stroke-linejoin="round"/>
<path d="M129.343 87.2891V86.0234" stroke="#FAFAFA" stroke-opacity="0.75" stroke-width="2.5" stroke-linecap="round" stroke-linejoin="round" stroke-dasharray="3.65 3.65"/>
<path d="M87.1479 64.1934L87.8985 64.6267" stroke="#FAFAFA" stroke-opacity="0.75" stroke-width="2.5" stroke-linecap="round" stroke-linejoin="round"/>
<path d="M89.4387 65.5161L125.631 86.4111" stroke="#FAFAFA" stroke-opacity="0.75" stroke-width="2.5" stroke-linecap="round" stroke-linejoin="round" stroke-dasharray="5.13 5.13"/>
<path d="M126.401 86.8555L127.151 87.2888" stroke="#FAFAFA" stroke-opacity="0.75" stroke-width="2.5" stroke-linecap="round" stroke-linejoin="round"/>
<path d="M127.151 89.188V88.3213" stroke="#FAFAFA" stroke-opacity="0.75" stroke-width="2.5" stroke-linecap="round" stroke-linejoin="round"/>
<path d="M127.151 88.1562V87.2896" stroke="#FAFAFA" stroke-opacity="0.75" stroke-width="2.5" stroke-linecap="round" stroke-linejoin="round"/>
<path d="M89.3399 62.9282L88.5894 63.3616" stroke="#FAFAFA" stroke-opacity="0.75" stroke-width="2.5" stroke-linecap="round" stroke-linejoin="round"/>
<path d="M87.8985 63.7603L87.1479 64.1936" stroke="#FAFAFA" stroke-opacity="0.75" stroke-width="2.5" stroke-linecap="round" stroke-linejoin="round"/>
<path d="M87.1479 112.282V111.416" stroke="#FAFAFA" stroke-opacity="0.75" stroke-width="2.5" stroke-linecap="round" stroke-linejoin="round"/>
<path d="M87.1479 109.698V65.918" stroke="#FAFAFA" stroke-opacity="0.75" stroke-width="2.5" stroke-linecap="round" stroke-linejoin="round" stroke-dasharray="4.95 4.95"/>
<path d="M87.1479 65.06V64.1934" stroke="#FAFAFA" stroke-opacity="0.75" stroke-width="2.5" stroke-linecap="round" stroke-linejoin="round"/>
<path d="M93.176 65.1428L92.4254 64.7095" stroke="#FAFAFA" stroke-opacity="0.75" stroke-width="2.5" stroke-linecap="round" stroke-linejoin="round"/>
<path d="M91.6471 64.2603L90.4795 63.5864" stroke="#FAFAFA" stroke-opacity="0.75" stroke-width="2.5" stroke-linecap="round" stroke-linejoin="round" stroke-dasharray="2.59 2.59"/>
<path d="M90.0905 63.3616L89.34 62.9282" stroke="#FAFAFA" stroke-opacity="0.75" stroke-width="2.5" stroke-linecap="round" stroke-linejoin="round"/>
<path d="M172.632 115.621V114.754" stroke="#FAFAFA" stroke-opacity="0.75" stroke-width="2.5" stroke-linecap="round" stroke-linejoin="round"/>
<path d="M172.632 114.414V113.548" stroke="#FAFAFA" stroke-opacity="0.75" stroke-width="2.5" stroke-linecap="round" stroke-linejoin="round"/>
<path d="M174.824 114.602V113.735" stroke="#FAFAFA" stroke-opacity="0.75" stroke-width="2.5" stroke-linecap="round" stroke-linejoin="round"/>
<path d="M174.824 113.149V112.283" stroke="#FAFAFA" stroke-opacity="0.75" stroke-width="2.5" stroke-linecap="round" stroke-linejoin="round"/>
<path d="M174.825 218.586V118.399" stroke="#FAFAFA" stroke-opacity="0.75" stroke-width="2.5" stroke-miterlimit="10" stroke-linecap="round" stroke-linejoin="round"/>
<path d="M172.633 219.851L174.825 218.585" stroke="#FAFAFA" stroke-opacity="0.75" stroke-width="2.5" stroke-miterlimit="10" stroke-linecap="round" stroke-linejoin="round"/>
<path d="M172.633 219.851V119.417" stroke="#FAFAFA" stroke-opacity="0.75" stroke-width="2.5" stroke-miterlimit="10" stroke-linecap="round" stroke-linejoin="round"/>
<path d="M133.279 197.131L172.633 219.851" stroke="#FAFAFA" stroke-opacity="0.75" stroke-width="2.5" stroke-miterlimit="10" stroke-linecap="round" stroke-linejoin="round"/>
<path d="M199.181 84.4663V88.2384" stroke="#FAFAFA" stroke-opacity="0.75" stroke-width="2.5" stroke-miterlimit="10" stroke-linecap="round" stroke-linejoin="round"/>
<path d="M62.7911 88.2381V84.4414" stroke="#FAFAFA" stroke-opacity="0.75" stroke-width="2.5" stroke-miterlimit="10" stroke-linecap="round" stroke-linejoin="round"/>
<path d="M62.7911 101.985V88.2383" stroke="#FAFAFA" stroke-opacity="0.75" stroke-width="2.5" stroke-miterlimit="10" stroke-linecap="round" stroke-linejoin="round"/>
<path d="M199.181 88.2383V194.54" stroke="#FAFAFA" stroke-opacity="0.75" stroke-width="2.5" stroke-miterlimit="10" stroke-linecap="round" stroke-linejoin="round"/>
<path d="M85.2936 223.769C86.716 224.502 88.1554 225.198 89.62 225.843C91.1239 226.505 92.6492 227.112 94.1874 227.688C95.6274 228.229 97.089 228.719 98.5571 229.177C100.076 229.65 101.607 230.095 103.149 230.483C104.715 230.877 106.284 231.259 107.867 231.58C109.466 231.905 111.069 232.214 112.682 232.467C114.277 232.717 115.875 232.951 117.48 233.132C119.069 233.311 120.661 233.476 122.257 233.588C123.852 233.7 125.449 233.802 127.048 233.847C128.679 233.893 130.312 233.929 131.944 233.908C132.39 233.903 132.836 233.897 133.281 233.891" stroke="#FAFAFA" stroke-opacity="0.75" stroke-width="2.5" stroke-miterlimit="10" stroke-linecap="round" stroke-linejoin="round"/>
<path d="M85.2936 223.769V117.466" stroke="#FAFAFA" stroke-opacity="0.75" stroke-width="2.5" stroke-miterlimit="10" stroke-linecap="round" stroke-linejoin="round"/>
<path d="M181.611 58.0605L85.2936 113.67" stroke="#FAFAFA" stroke-opacity="0.75" stroke-width="2.5" stroke-miterlimit="10" stroke-linecap="round" stroke-linejoin="round"/>
<path d="M85.2936 113.67C87.7057 114.914 90.1767 116.045 92.708 117.025C95.2754 118.019 97.8806 118.91 100.527 119.669C103.201 120.436 105.907 121.093 108.635 121.637C111.389 122.186 114.161 122.625 116.948 122.969C119.663 123.304 122.391 123.529 125.122 123.666C127.882 123.804 130.647 123.848 133.409 123.787C136.165 123.726 138.92 123.587 141.665 123.327C144.423 123.065 147.175 122.731 149.907 122.267C152.689 121.794 155.449 121.227 158.187 120.544C160.813 119.89 163.415 119.123 165.973 118.238C168.583 117.335 171.15 116.311 173.658 115.154C176.117 114.021 178.516 112.746 180.817 111.321C183.15 109.876 185.395 108.279 187.481 106.494C189.518 104.751 191.416 102.837 193.074 100.727C194.718 98.6327 196.134 96.3523 197.184 93.9014C198.185 91.5659 198.848 89.0851 199.083 86.5531C199.315 84.0637 199.13 81.5424 198.554 79.1101C197.965 76.6284 196.984 74.2419 195.708 72.035C194.356 69.6971 192.705 67.5422 190.849 65.5822C189.026 63.6557 187.018 61.9058 184.89 60.3236C183.823 59.5304 182.727 58.7823 181.611 58.0605" stroke="#FAFAFA" stroke-opacity="0.75" stroke-width="2.5" stroke-miterlimit="10" stroke-linecap="round" stroke-linejoin="round"/>
<path d="M85.2936 117.467V113.67" stroke="#FAFAFA" stroke-opacity="0.75" stroke-width="2.5" stroke-miterlimit="10" stroke-linecap="round" stroke-linejoin="round"/>
<path d="M55.9142 111.65L210.991 22.1152" stroke="#FAFAFA" stroke-opacity="0.75" stroke-width="2.5" stroke-miterlimit="10" stroke-linecap="round" stroke-linejoin="round"/>
<path d="M199.143 158.037L210.99 151.197" stroke="#FAFAFA" stroke-opacity="0.75" stroke-width="2.5" stroke-miterlimit="10" stroke-linecap="round" stroke-linejoin="round"/>
<path d="M55.9142 240.732L85.2948 223.769" stroke="#FAFAFA" stroke-opacity="0.75" stroke-width="2.5" stroke-miterlimit="10" stroke-linecap="round" stroke-linejoin="round"/>
<path d="M206.059 19.2681L50.9824 108.803" stroke="#FAFAFA" stroke-opacity="0.75" stroke-width="2.5" stroke-miterlimit="10" stroke-linecap="round" stroke-linejoin="round"/>
<path d="M50.9824 237.884V108.803" stroke="#FAFAFA" stroke-opacity="0.75" stroke-width="2.5" stroke-miterlimit="10" stroke-linecap="round" stroke-linejoin="round"/>
<path d="M50.9824 108.803L55.9142 111.65" stroke="#FAFAFA" stroke-opacity="0.75" stroke-width="2.5" stroke-miterlimit="10" stroke-linecap="round" stroke-linejoin="round"/>
<path d="M55.9142 240.732V111.65" stroke="#FAFAFA" stroke-opacity="0.75" stroke-width="2.5" stroke-miterlimit="10" stroke-linecap="round" stroke-linejoin="round"/>
<path d="M50.9824 237.885L55.9142 240.732" stroke="#FAFAFA" stroke-opacity="0.75" stroke-width="2.5" stroke-miterlimit="10" stroke-linecap="round" stroke-linejoin="round"/>
<path d="M210.99 151.197V22.1152" stroke="#FAFAFA" stroke-opacity="0.75" stroke-width="2.5" stroke-miterlimit="10" stroke-linecap="round" stroke-linejoin="round"/>
<path d="M210.99 22.1156L206.058 19.2681" stroke="#FAFAFA" stroke-opacity="0.75" stroke-width="2.5" stroke-miterlimit="10" stroke-linecap="round" stroke-linejoin="round"/>
<path d="M156.443 47.9142C154.42 47.4566 152.39 47.0306 150.345 46.6888C148.257 46.34 146.164 46.0315 144.06 45.7999C141.962 45.5687 139.859 45.3791 137.75 45.2636C135.606 45.1464 133.46 45.0698 131.313 45.0698C129.181 45.0698 127.049 45.1083 124.921 45.2251C122.792 45.342 120.664 45.4955 118.545 45.7299C116.45 45.9615 114.358 46.2308 112.28 46.5796C110.171 46.9335 108.072 47.3363 105.987 47.8109C103.9 48.2855 101.828 48.8232 99.7768 49.4333C97.7672 50.0313 95.7805 50.7 93.8163 51.4322C91.8223 52.1755 89.8633 53.0082 87.9345 53.9067C86.067 54.7765 84.237 55.7364 82.4604 56.7788C80.656 57.8379 78.8963 58.976 77.2175 60.2251C75.5507 61.4651 73.9516 62.7921 72.4564 64.2353C71.0306 65.6116 69.6977 67.0884 68.5017 68.6692C67.2527 70.3204 66.1486 72.0849 65.2555 73.9541C64.3955 75.7544 63.7285 77.6472 63.309 79.5989C62.9045 81.4816 62.7322 83.415 62.8098 85.3397C62.8882 87.2897 63.2168 89.2251 63.7722 91.0954C64.3417 93.0132 65.1453 94.8581 66.1257 96.6008C66.6162 97.473 67.1539 98.3147 67.7207 99.1388" stroke="#FAFAFA" stroke-opacity="0.75" stroke-width="2.5" stroke-miterlimit="10" stroke-linecap="round" stroke-linejoin="round"/>
<path d="M174.824 167.98L175.375 168.287L175.919 168.598" stroke="#FAFAFA" stroke-opacity="0.75" stroke-width="2.5" stroke-miterlimit="10" stroke-linecap="round" stroke-linejoin="round"/>
<path d="M199.175 194.014L199.17 193.815L199.163 193.615L199.154 193.416L199.143 193.217" stroke="#FAFAFA" stroke-opacity="0.75" stroke-width="2.5" stroke-miterlimit="10" stroke-linecap="round" stroke-linejoin="round"/>
<path d="M199.143 195.865L199.16 195.535L199.172 195.203L199.179 194.872L199.181 194.541" stroke="#FAFAFA" stroke-opacity="0.75" stroke-width="2.5" stroke-miterlimit="10" stroke-linecap="round" stroke-linejoin="round"/>
<path d="M199.143 195.865V89.562" stroke="#FAFAFA" stroke-opacity="0.75" stroke-width="2.5" stroke-miterlimit="10" stroke-linecap="round" stroke-linejoin="round"/>
<path d="M194.495 195.774L199.143 195.865" stroke="#FAFAFA" stroke-opacity="0.75" stroke-width="2.5" stroke-miterlimit="10" stroke-linecap="round" stroke-linejoin="round"/>
<path d="M194.495 195.775V102.581" stroke="#FAFAFA" stroke-opacity="0.75" stroke-width="2.5" stroke-miterlimit="10" stroke-linecap="round" stroke-linejoin="round"/>
<path d="M175.919 168.598C177.755 169.67 179.543 170.82 181.247 172.092C182.967 173.375 184.599 174.773 186.113 176.293C187.586 177.771 188.938 179.376 190.115 181.1C191.262 182.782 192.241 184.585 192.981 186.483C193.736 188.423 194.24 190.46 194.437 192.534C194.461 192.791 194.48 193.049 194.496 193.307" stroke="#FAFAFA" stroke-opacity="0.75" stroke-width="2.5" stroke-miterlimit="10" stroke-linecap="round" stroke-linejoin="round"/>
<path d="M133.279 123.793C135.958 123.723 138.637 123.611 141.306 123.361C144.038 123.105 146.762 122.787 149.47 122.339C152.259 121.878 155.024 121.315 157.772 120.649C160.35 120.024 162.906 119.281 165.418 118.428C168.042 117.537 170.622 116.529 173.148 115.388C175.603 114.28 177.999 113.03 180.304 111.636C182.589 110.255 184.788 108.726 186.848 107.027C188.911 105.326 190.84 103.452 192.543 101.388C194.226 99.3482 195.693 97.1201 196.817 94.7222C197.847 92.523 198.581 90.1851 198.937 87.7806C199.036 87.1122 199.101 86.44 199.144 85.7661" stroke="#FAFAFA" stroke-opacity="0.75" stroke-width="2.5" stroke-miterlimit="10" stroke-linecap="round" stroke-linejoin="round"/>
<path d="M133.279 233.892V127.589" stroke="#FAFAFA" stroke-opacity="0.75" stroke-width="2.5" stroke-miterlimit="10" stroke-linecap="round" stroke-linejoin="round"/>
<path d="M133.279 127.589L134.845 127.548L136.416 127.486L137.99 127.403L139.566 127.298L141.142 127.172L142.718 127.024L144.291 126.855L145.862 126.663L147.427 126.45L148.986 126.215L150.538 125.958L152.081 125.68L153.614 125.381L155.136 125.06L156.645 124.718L158.139 124.356L159.619 123.973L161.081 123.57L162.526 123.147L163.952 122.705L165.358 122.244L166.742 121.765L168.105 121.268L169.443 120.753L170.758 120.222L171.406 119.95L172.047 119.674L172.682 119.394L173.311 119.111L173.932 118.823L174.547 118.532L175.154 118.237L175.755 117.939L176.349 117.637L176.936 117.332L177.515 117.024L178.087 116.712L178.651 116.397L179.208 116.079L179.759 115.758L180.304 115.432L180.844 115.102L181.378 114.767L181.906 114.428L182.429 114.086L182.946 113.739L183.457 113.388L183.961 113.033L184.459 112.674L184.95 112.311L185.435 111.945L185.913 111.575L186.384 111.201L186.848 110.823L187.304 110.441L187.753 110.057L188.195 109.669L188.63 109.277L189.056 108.882L189.476 108.484L189.887 108.083L190.29 107.678L190.685 107.271L191.072 106.861L191.45 106.448L191.82 106.032L192.182 105.614L192.536 105.193L192.88 104.769L193.216 104.343L193.543 103.915L193.862 103.484L194.171 103.052L194.471 102.617L194.763 102.181L195.045 101.743L195.319 101.303L195.582 100.861L195.837 100.418L196.083 99.9728L196.202 99.7498L196.319 99.5266L196.434 99.303L196.546 99.0794L196.656 98.8551L196.764 98.6308L196.869 98.4058L196.972 98.1812L197.072 97.9559L197.171 97.7305L197.267 97.5048L197.36 97.2788L197.451 97.0528L197.54 96.8268L197.626 96.6L197.711 96.3737L197.792 96.1469L197.872 95.9202L197.948 95.6932L198.023 95.4661L198.095 95.2387L198.165 95.0116L198.233 94.7842L198.298 94.5568L198.361 94.3294L198.422 94.102L198.48 93.8742L198.536 93.6468L198.589 93.4194L198.64 93.1916L198.689 92.9642L198.736 92.7368L198.78 92.5094L198.822 92.282L198.861 92.0545L198.898 91.8275L198.933 91.6004L198.966 91.3733L198.996 91.1463L199.024 90.9196L199.049 90.6928L199.073 90.4665L199.094 90.2401L199.113 90.0137L199.129 89.7877L199.144 89.562" stroke="#FAFAFA" stroke-opacity="0.75" stroke-width="2.5" stroke-miterlimit="10" stroke-linecap="round" stroke-linejoin="round"/>
<path d="M174.825 118.399L173.739 118.914L172.633 119.417L171.579 119.877L170.506 120.326L169.417 120.765L168.312 121.191L167.189 121.606L166.052 122.008L164.9 122.398L163.733 122.775L162.553 123.14L161.36 123.491L160.154 123.829L158.937 124.153L157.709 124.463L156.471 124.759L155.223 125.041L153.966 125.309L152.701 125.562L151.429 125.801L150.151 126.025L148.866 126.234L147.577 126.429L146.283 126.608L144.986 126.773L143.686 126.923L142.385 127.058L141.081 127.178L139.778 127.283L138.475 127.373L137.172 127.449L135.872 127.51L134.574 127.557L133.279 127.589V197.131L172.633 219.851L174.825 218.586V118.399Z" stroke="#FAFAFA" stroke-opacity="0.75" stroke-width="3.25" stroke-miterlimit="10" stroke-linecap="round" stroke-linejoin="round"/>
</g>
<defs>
<clipPath id="clip0">
<rect width="259.996" height="260" fill="white" transform="translate(0.987549)"/>
</clipPath>
</defs>
</svg>
