<svg width="101" height="100" viewBox="0 0 101 100" fill="none" xmlns="http://www.w3.org/2000/svg">
<ellipse cx="50.792" cy="49.9518" rx="49.8017" ry="49.8034" fill="#024284"/>
<path d="M66.2833 33.0239C65.1487 33.4814 43.4841 41.99 33.594 45.8636C30.5799 47.0447 27.9722 48.0818 27.8032 48.18C27.6423 48.2647 27.4935 48.4347 27.4773 48.5363C27.3653 49.1853 27.3887 49.2069 32.2884 52.8397L37.0415 56.369L37.8525 62.0666C38.9392 69.7993 38.7026 69.6339 41.6087 64.7923C42.7028 62.9621 43.6603 61.4615 43.7201 61.4531C43.7898 61.4433 46.0529 63.0873 48.7645 65.1029C51.466 67.1199 53.7875 68.8177 53.9156 68.8618C54.0987 68.9354 54.2066 68.9079 54.3753 68.7351C54.64 68.4496 68.6115 33.5411 68.6165 33.143C68.6242 32.9805 68.5336 32.7697 68.4151 32.6498C68.1415 32.3653 67.7048 32.4391 66.2833 33.0239ZM67.628 33.5551C67.4327 33.7564 55.8505 44.7474 46.7639 53.3262L41.1316 58.6503L40.1306 62.5164C39.586 64.6419 39.1111 66.323 39.0925 66.2635C39.0188 66.1 38.125 56.4154 38.1763 56.3461C38.1928 56.319 40.9305 54.1833 44.2546 51.5926C54.3394 43.7552 62.5262 37.3766 65.1364 35.3458C67.4964 33.4867 68.0051 33.1296 67.628 33.5551Z" fill="#FAFAFA" fill-opacity="0.8"/>
</svg>
