<svg width="76" height="67" viewBox="0 0 76 67" fill="none" xmlns="http://www.w3.org/2000/svg">
<path d="M31.7311 0.980398C31.6604 1.14537 31.6368 1.87594 31.6839 2.55939L31.7546 3.83201L32.6973 3.99697C34.1585 4.25621 43.0669 4.20908 43.7739 3.94984C44.3631 3.73774 44.3867 3.64347 44.316 2.25302L44.2452 0.768296L38.0471 0.697594C32.9566 0.65046 31.8489 0.697594 31.7311 0.980398Z" fill="#E5E1E1" fill-opacity="0.75"/>
<path d="M1.47095 36.3547C1.47095 52.239 1.47095 65.2952 1.47095 65.3894C1.47095 65.5073 9.3188 65.6015 18.9106 65.6487L36.3503 65.6958V36.5904V7.48501H18.9106H1.47095V36.3547ZM21.9743 32.8197V34.3515H25.2737H28.5731V36.7082V39.065H25.2737H21.9743V40.5968C21.9743 41.4452 21.9036 42.1287 21.8094 42.1287C21.5973 42.1287 15.0456 36.9675 14.9513 36.7318C14.9278 36.6375 15.4934 36.0719 16.2475 35.4828C19.9476 32.5369 21.5973 31.2878 21.7858 31.2878C21.8801 31.2878 21.9743 31.9712 21.9743 32.8197Z" fill="#E5E1E1" fill-opacity="0.75"/>
<path d="M39.6497 36.5904V65.6958L57.0893 65.6487C66.6811 65.6015 74.5289 65.5073 74.5289 65.3894C74.5289 65.2952 74.5289 52.239 74.5289 36.3547V7.48501H57.0893H39.6497V36.5904ZM57.702 33.8802C59.4931 35.2942 60.9779 36.5668 60.9779 36.6847C60.9779 36.9203 54.4969 42.1287 54.2141 42.1287C54.0963 42.1287 54.0256 41.4452 54.0256 40.5968V39.065H50.7262H47.4268V36.7082V34.3515H50.7262H54.0256V32.8197C54.0256 31.9712 54.1198 31.2878 54.2141 31.2878C54.332 31.2878 55.8874 32.4426 57.702 33.8802Z" fill="#E5E1E1" fill-opacity="0.75"/>
</svg>
