<svg width="85" height="60" viewBox="0 0 85 60" fill="none" xmlns="http://www.w3.org/2000/svg">
<path d="M76.5397 60H8.59407C4.32597 60 0.866241 56.4655 0.866241 52.1052V7.89478C0.866241 3.53448 4.32597 -1.39782e-06 8.59407 -1.39782e-06H76.5397C80.8075 -1.39782e-06 84.2675 3.53448 84.2675 7.89478V52.1052C84.2675 56.4655 80.8075 60 76.5397 60Z" fill="#0066B2"/>
<path d="M39.0261 39.3989H34.6825L37.3973 22.3529H41.7414L39.0261 39.3989Z" fill="white"/>
<path d="M31.0279 22.3534L26.8865 34.0771L26.3964 31.5526L26.397 31.5534L24.9351 23.8885C24.9351 23.8885 24.7585 22.3534 22.8744 22.3534H16.0283L15.9482 22.6419C15.9482 22.6419 18.0425 23.0868 20.4919 24.5907L24.2661 39.3989H28.7921L35.7033 22.3534H31.0279Z" fill="white"/>
<path d="M60.4157 33.3691L62.6983 26.9902L63.9822 33.3691H60.4157ZM65.1955 39.3989H69.1841L65.7065 22.3534H62.2139C60.6013 22.3534 60.2085 23.6236 60.2085 23.6236L53.7305 39.3989H58.2582L59.1638 36.867H64.6861L65.1955 39.3989Z" fill="white"/>
<path d="M54.07 26.4527L54.6899 22.7917C54.6899 22.7917 52.7768 22.0486 50.7828 22.0486C48.6271 22.0486 43.508 23.0118 43.508 27.6914C43.508 32.0955 49.5162 32.1501 49.5162 34.4625C49.5162 36.7748 44.1273 36.3614 42.349 34.9029L41.7027 38.7295C41.7027 38.7295 43.6422 39.6924 46.6065 39.6924C49.5702 39.6924 54.0431 38.1237 54.0431 33.857C54.0431 29.4252 47.9806 29.0125 47.9806 27.0859C47.9806 25.1587 52.2112 25.4063 54.07 26.4527" fill="white"/>
<path d="M26.3969 31.5537L24.9351 23.8886C24.9351 23.8886 24.7585 22.3534 22.8743 22.3534H16.0286L15.9482 22.6419C15.9482 22.6419 19.239 23.3388 22.396 25.949C25.4127 28.444 26.3969 31.5537 26.3969 31.5537Z" fill="#F9A533"/>
</svg>
